<svg width="166" height="102" viewBox="0 0 166 102" fill="none" xmlns="http://www.w3.org/2000/svg">
<path d="M82.9152 101.325C61.1704 101.325 40.6885 96.4234 25.2421 87.5294C8.96993 78.1364 0 65.1609 0 50.9912C0 36.8214 8.96993 23.8637 25.2421 14.4707C40.7047 5.57677 61.1866 0.675293 82.9152 0.675293C104.644 0.675293 125.142 5.57677 140.588 14.4707C156.877 23.8459 165.83 36.8214 165.83 50.9912C165.83 65.1609 156.86 78.1364 140.588 87.5116C125.142 96.4056 104.66 101.307 82.9152 101.307V101.325ZM82.9152 8.96324C36.6245 8.96324 5.53739 30.6901 5.53739 50.9912C5.53739 71.2922 36.6407 93.0369 82.9314 93.0369C129.222 93.0369 160.325 71.2922 160.325 50.9912C160.325 30.6901 129.206 8.96324 82.9152 8.96324Z" fill="white"/>
<path d="M106.267 35.8687C106.267 35.8687 109.706 36.3756 110.968 39.7938C111.766 41.9519 111.186 46.0798 108.052 48.3682C104.918 50.6567 103.409 49.9615 97.1702 48.7738C96.967 48.7303 96.7784 48.7159 96.6188 48.6869C94.2104 48.151 90.9459 48.4696 88.7406 48.3248C83.9092 47.9917 79.0923 47.2964 74.3625 46.1957C73.4775 45.9929 72.3748 45.6018 71.1996 45.1963C73.9998 44.3997 75.8424 43.8058 77.6995 41.4015C80.8624 37.3315 79.0778 31.6394 79.7017 26.8017C80.2095 22.7897 79.1939 21.8917 76.4808 24.7885C75.2185 26.1355 69.1829 29.6116 66.2086 35.2314C66.0781 34.9707 65.933 34.7244 65.7299 34.4782C61.856 29.9447 56.3572 33.6526 55.1675 38.3454C54.0939 38.6496 52.3383 38.7654 50.7859 38.0412C50.6263 37.9688 50.4667 37.9109 50.3071 37.8674C50.2781 37.7805 50.2491 37.7081 50.1911 37.6357C50.1185 37.5488 50.046 37.4764 49.9734 37.3895C49.7993 37.2446 49.5962 37.1432 49.3641 37.0853C49.219 37.0563 49.0449 37.0419 48.8998 37.0274C48.8708 37.0274 48.8272 37.0274 48.7982 37.0274C48.7692 37.0274 48.7257 37.0274 48.6967 37.0274C48.5371 37.0274 48.392 37.0563 48.2324 37.0853L47.8987 37.2012C47.7391 37.2736 47.6085 37.375 47.507 37.5053C47.4199 37.5778 47.3619 37.6647 47.3328 37.766C47.2458 37.9109 47.2023 38.0702 47.2168 38.2295C47.2313 38.3309 47.2458 38.4468 47.2603 38.5482C47.3038 38.6496 47.3474 38.7365 47.4054 38.8379C47.4344 38.8813 47.4779 38.9103 47.5215 38.9392C47.1007 39.6779 47.0137 40.6918 47.4779 41.865C49.5382 46.9633 54.6307 49.7152 61.1886 50.1932C61.4353 50.6567 61.7109 51.1202 62.0011 51.5837C62.1027 51.743 62.2188 51.8733 62.3348 52.0037C62.3929 52.0761 62.4364 52.163 62.5089 52.2499C63.6841 53.5969 65.4542 54.4804 66.5568 55.8274C67.9497 57.5221 68.4865 60.1726 68.7186 62.2148C68.8057 62.968 69.5021 69.7899 68.1963 70.3403C65.933 71.3107 64.5837 72.4405 66.3537 73.9468C71.2867 78.1181 75.3491 72.1073 77.8446 68.2981C79.7888 65.3434 80.4997 64.7061 84.0108 64.6916C84.5331 64.6916 86.6369 64.6047 87.1592 64.6047C87.0721 66.2848 88.1022 67.2987 89.9448 66.56C90.2205 66.4441 91.9325 65.8213 92.774 65.4592C94.2104 66.1255 94.9503 66.9945 95.0084 67.878C94.8778 67.9505 94.0218 68.2836 93.7461 68.3415C89.7417 69.0947 89.3355 73.1067 93.6155 73.2516C96.0965 73.3385 97.9681 72.6432 100.333 72.3391C101.595 72.1798 103.032 72.7301 104.25 72.2811C105.832 71.7018 107.109 70.0651 106.514 68.2981C106.34 67.7766 106.108 67.2842 105.846 66.7917C107.051 65.6041 107.645 63.7067 107.312 61.3458C107.036 59.3615 106.398 56.8993 105.353 55.1612C105.15 54.8281 104.947 54.5673 104.744 54.3501C107.471 53.6983 110.663 52.0616 112.433 48.0931C116.002 40.1559 110.605 35.3617 106.238 35.8542L106.267 35.8687Z" fill="white"/>
</svg>
