<svg xmlns="http://www.w3.org/2000/svg" width="80" height="48" fill="none"><path fill="#2E2E2E" d="M0 0h80v48H0z"/><mask id="a" width="35" height="15" x="22" y="17" fill="#000" maskUnits="userSpaceOnUse"><path fill="#fff" d="M22 17h35v15H22z"/><path d="M26.624 27.312c0 .245.048.459.144.64.107.17.24.315.4.432.16.107.341.187.544.24a2.696 2.696 0 0 0 1.152.032c.181-.043.341-.101.48-.176.15-.085.272-.192.368-.32a.878.878 0 0 0 .144-.512c0-.341-.23-.597-.688-.768-.448-.17-1.077-.341-1.888-.512-.33-.075-.656-.16-.976-.256a3.76 3.76 0 0 1-.832-.4 2.06 2.06 0 0 1-.592-.624c-.15-.256-.224-.565-.224-.928 0-.533.101-.97.304-1.312.213-.341.49-.608.832-.8a3.373 3.373 0 0 1 1.152-.416 6.677 6.677 0 0 1 2.608 0c.427.085.805.23 1.136.432.33.203.603.475.816.816.224.33.357.752.4 1.264h-2.16c-.032-.437-.197-.73-.496-.88-.299-.16-.65-.24-1.056-.24-.128 0-.267.01-.416.032a1.32 1.32 0 0 0-.416.096.821.821 0 0 0-.304.24c-.085.096-.128.23-.128.4 0 .203.075.368.224.496.15.128.341.235.576.32.245.075.523.144.832.208.31.064.624.133.944.208.33.075.65.165.96.272.32.107.603.25.848.432.245.17.443.39.592.656.15.256.224.576.224.96 0 .544-.112 1.003-.336 1.376a2.575 2.575 0 0 1-.848.88 3.397 3.397 0 0 1-1.216.464 6.855 6.855 0 0 1-2.784 0 3.808 3.808 0 0 1-1.232-.48 2.886 2.886 0 0 1-.88-.88c-.224-.373-.347-.837-.368-1.392h2.16Zm8.882-6.736 1.856-.704.432 1.232-1.888.624 1.184 1.568-1.056.784-1.184-1.648-1.12 1.648-1.072-.784 1.184-1.568-1.856-.624.432-1.232 1.808.704v-2h1.28v2Zm2.547 1.152h2.16v1.152h.048c.288-.48.662-.827 1.12-1.04a3.175 3.175 0 0 1 1.408-.336c.608 0 1.104.085 1.488.256.395.16.704.39.928.688.224.288.379.645.464 1.072.096.416.144.88.144 1.392V30h-2.272v-4.672c0-.683-.106-1.19-.32-1.52-.213-.341-.592-.512-1.136-.512-.618 0-1.066.187-1.344.56-.277.363-.416.965-.416 1.808V30h-2.272v-8.272ZM52.45 25.84c0-.341-.032-.667-.096-.976a2.239 2.239 0 0 0-.336-.832 1.747 1.747 0 0 0-.592-.592c-.246-.15-.555-.224-.928-.224-.374 0-.688.075-.944.224-.256.15-.464.347-.624.592-.15.245-.262.528-.336.848-.064.31-.096.635-.096.976 0 .32.037.64.112.96.074.32.192.608.352.864.17.245.378.448.624.608.256.15.56.224.912.224.373 0 .682-.075.928-.224.256-.15.458-.347.608-.592.15-.256.256-.544.32-.864.064-.32.096-.65.096-.992Zm.032 3.104h-.032a2.383 2.383 0 0 1-1.056.976c-.427.192-.912.288-1.456.288-.619 0-1.163-.117-1.632-.352a3.468 3.468 0 0 1-1.168-.976 4.77 4.77 0 0 1-.688-1.424 6.14 6.14 0 0 1-.224-1.664c0-.555.074-1.088.224-1.6.16-.523.39-.981.688-1.376.31-.395.693-.71 1.152-.944.458-.245.992-.368 1.6-.368.49 0 .954.107 1.392.32.448.203.8.507 1.056.912h.032v-4.16h2.272V30h-2.16v-1.056Z"/></mask><path fill="#fff" d="M26.624 27.312h1.5a1.5 1.5 0 0 0-1.5-1.5v1.5Zm.144.64-1.326.702c.017.032.035.063.054.093l1.272-.795Zm.4.432-.887 1.21.055.038.832-1.248Zm.544.24-.382 1.45a.935.935 0 0 0 .018.005l.364-1.455Zm1.152.032.276 1.474.068-.014-.344-1.46Zm.48-.176.711 1.32.033-.018-.744-1.302Zm.368-.32 1.2.9a1.5 1.5 0 0 0 .033-.046l-1.233-.854Zm-.544-1.28-.534 1.402.01.004.524-1.406Zm-1.888-.512-.33 1.463.021.005.309-1.468Zm-.976-.256-.489 1.418.058.019.431-1.437Zm-.832-.4-.857 1.231.038.025.819-1.256Zm-.592-.624-1.296.756.015.024 1.281-.78Zm.08-2.24-1.272-.795-.018.03 1.29.765Zm.832-.8.735 1.307.03-.017-.765-1.29Zm1.152-.416.259 1.477.035-.006-.294-1.471Zm2.608 0-.301 1.47h.007l.294-1.47Zm1.136.432-.784 1.279.784-1.279Zm.816.816-1.272.795.03.046 1.242-.841Zm.4 1.264v1.5a1.5 1.5 0 0 0 1.495-1.625l-1.495.125Zm-2.16 0-1.496.11a1.5 1.5 0 0 0 1.496 1.39v-1.5Zm-.496-.88-.708 1.322.037.02.671-1.342Zm-1.472-.208.107 1.496c.035-.002.07-.006.105-.011l-.212-1.485Zm-.416.096-.577-1.385-.044.02.621 1.365Zm-.304.24 1.121.997.05-.06-1.171-.937Zm.672 1.216-.513 1.41.076.025.437-1.435Zm.832.208-.304 1.469.304-1.469Zm.944.208-.34 1.46.01.003.33-1.463Zm.96.272-.489 1.418.015.005.474-1.423Zm.848.432-.892 1.206.035.025.857-1.231Zm.592.656-1.309.733a1.7 1.7 0 0 0 .013.023l1.296-.756Zm-.112 2.336-1.286-.772-.007.011 1.293.761Zm-.848.88.805 1.265-.805-1.265Zm-1.216.464-.274-1.475a1.877 1.877 0 0 0-.04.008l.314 1.467Zm-2.784 0 .307-1.468-.307 1.468Zm-1.232-.48-.805 1.265.017.011.788-1.276Zm-.88-.88-1.286.772c.009.014.017.029.027.043l1.259-.815Zm-.368-1.392v-1.5a1.5 1.5 0 0 0-1.499 1.558l1.499-.058Zm2.16 0h-1.5c0 .442.088.906.318 1.342l1.326-.702 1.326-.702a.32.32 0 0 1 .03.077c.003.013 0 .01 0-.015h-1.5Zm.144.64-1.272.795c.206.33.47.615.785.847l.887-1.21.887-1.21c-.004-.003-.008-.005-.015-.017l-1.272.795Zm.4.432-.832 1.248c.31.207.646.35.994.443l.382-1.451.382-1.45a.308.308 0 0 1-.094-.038l-.832 1.248Zm.544.24-.364 1.455c.335.084.676.125 1.02.125v-3c-.104 0-.2-.012-.292-.035l-.364 1.455Zm.656.08v1.5c.26 0 .518-.026.772-.074l-.276-1.474-.276-1.474c-.088.016-.16.022-.22.022v1.5Zm.496-.048.344 1.46c.286-.067.574-.168.847-.315l-.711-1.321-.711-1.32a.509.509 0 0 1-.113.036l.344 1.46Zm.48-.176.744 1.302c.314-.179.596-.418.824-.722l-1.2-.9-1.2-.9a.367.367 0 0 1 .088-.082l.744 1.302Zm.368-.32 1.233.854c.302-.437.411-.92.411-1.366h-3c0-.04.012-.183.123-.342l1.233.854Zm.144-.512h1.5a2.15 2.15 0 0 0-.555-1.449c-.33-.37-.743-.588-1.11-.725l-.523 1.406-.523 1.406c.092.034.024.028-.078-.085a.835.835 0 0 1-.21-.553h1.499Zm-.688-.768.534-1.402c-.555-.211-1.272-.4-2.113-.578l-.309 1.468-.309 1.468c.78.164 1.322.316 1.663.446l.534-1.402Zm-1.888-.512.33-1.463a13.08 13.08 0 0 1-.875-.23l-.431 1.437-.431 1.437c.354.106.713.2 1.077.282l.33-1.463Zm-.976-.256.489-1.418a2.263 2.263 0 0 1-.502-.238l-.819 1.256-.82 1.256c.36.235.75.42 1.163.562l.489-1.418Zm-.832-.4.857-1.231a.56.56 0 0 1-.168-.173l-1.281.78-1.281.78c.262.43.607.79 1.016 1.075l.857-1.231Zm-.592-.624 1.296-.756c.011.02-.02-.016-.02-.172h-3c0 .57.118 1.152.428 1.684l1.296-.756Zm-.224-.928h1.5c0-.353.068-.503.094-.546l-1.29-.766-1.29-.766c-.38.64-.514 1.365-.514 2.078h1.5Zm.304-1.312 1.272.795a.8.8 0 0 1 .295-.288l-.735-1.307-.735-1.307a3.798 3.798 0 0 0-1.369 1.312l1.272.795Zm.832-.8.766 1.29c.171-.102.38-.182.645-.229l-.259-1.477-.259-1.478c-.589.104-1.147.3-1.659.604l.766 1.29Zm1.152-.416.294 1.47a5.174 5.174 0 0 1 1.018-.098v-3a8.18 8.18 0 0 0-1.606.157l.294 1.471Zm1.312-.128v1.5c.352 0 .683.034.995.097l.301-1.469.301-1.47a7.93 7.93 0 0 0-1.597-.158v1.5Zm1.296.128-.294 1.47c.274.056.483.141.646.24l.784-1.278.784-1.279a4.947 4.947 0 0 0-1.626-.624l-.294 1.471Zm1.136.432-.784 1.279c.125.077.233.18.328.332l1.272-.795 1.272-.795a3.985 3.985 0 0 0-1.304-1.3l-.784 1.279Zm.816.816-1.242.841c.044.065.12.22.147.548l1.495-.125 1.495-.125c-.058-.696-.249-1.384-.653-1.98l-1.242.841Zm.4 1.264v-1.5h-2.16v3h2.16v-1.5Zm-2.16 0 1.496-.11c-.057-.776-.402-1.652-1.321-2.112l-.671 1.342-.67 1.342a.688.688 0 0 1-.289-.274c-.053-.094-.046-.14-.041-.079l1.496-.109Zm-.496-.88.708-1.322c-.555-.298-1.16-.418-1.764-.418v3c.206 0 .306.04.348.062l.708-1.322Zm-1.056-.24v-1.5c-.21 0-.42.017-.628.047l.212 1.485.212 1.485c.091-.013.158-.017.204-.017v-1.5Zm-.416.032-.107-1.496a2.817 2.817 0 0 0-.886.207l.577 1.385.577 1.385a.252.252 0 0 1-.04.013l-.014.002-.107-1.496Zm-.416.096-.62-1.366a2.321 2.321 0 0 0-.855.669l1.171.937 1.171.937a.678.678 0 0 1-.246.188l-.621-1.365Zm-.304.24-1.121-.997c-.4.45-.507.982-.507 1.397h3a.937.937 0 0 1-.25.596l-1.122-.996Zm-.128.4h-1.5c0 .625.255 1.212.748 1.635l.976-1.139.976-1.139a.872.872 0 0 1 .3.643h-1.5Zm.224.496-.976 1.139c.318.272.679.46 1.04.59l.512-1.409.513-1.41c-.11-.04-.132-.065-.113-.049l-.976 1.139Zm.576.32-.437 1.435c.298.09.62.17.965.242l.304-1.469.304-1.469a7.995 7.995 0 0 1-.7-.174l-.436 1.435Zm.832.208-.304 1.469c.297.061.599.128.907.2l.341-1.461.34-1.46c-.33-.078-.658-.15-.98-.217l-.304 1.469Zm.944.208-.33 1.463c.279.063.546.139.801.227l.489-1.418.489-1.418c-.363-.125-.736-.23-1.119-.317l-.33 1.463Zm.96.272-.474 1.423c.186.062.325.137.43.215l.892-1.206.892-1.206a4.52 4.52 0 0 0-1.266-.649l-.474 1.423Zm.848.432-.857 1.231a.445.445 0 0 1 .14.158l1.309-.733 1.309-.733a3.446 3.446 0 0 0-1.044-1.154l-.857 1.231Zm.592.656-1.296.756c-.018-.032.02.009.02.204h3c0-.573-.111-1.172-.428-1.716l-1.296.756Zm.224.96h-1.5c0 .34-.07.516-.122.604l1.286.772 1.286.772c.395-.658.55-1.4.55-2.148h-1.5Zm-.336 1.376-1.293-.76c-.094.16-.21.279-.36.374l.805 1.266.805 1.265a4.076 4.076 0 0 0 1.336-1.384l-1.293-.761Zm-.848.88-.805-1.266c-.172.11-.393.2-.685.255l.274 1.475.274 1.475a4.895 4.895 0 0 0 1.747-.674l-.805-1.265Zm-1.216.464-.314-1.467a5.05 5.05 0 0 1-1.062.111v3c.572 0 1.136-.059 1.69-.177l-.314-1.467Zm-1.376.144v-1.5a5.35 5.35 0 0 1-1.1-.112l-.308 1.468-.307 1.468a8.36 8.36 0 0 0 1.715.176v-1.5Zm-1.408-.144.307-1.468a2.311 2.311 0 0 1-.75-.288l-.789 1.276-.788 1.276c.524.324 1.1.544 1.713.672l.307-1.468Zm-1.232-.48.805-1.265a1.386 1.386 0 0 1-.426-.43l-1.259.815-1.26.815c.348.537.794.987 1.335 1.33l.805-1.265Zm-.88-.88 1.286-.772c-.063-.105-.14-.307-.155-.678l-1.499.058-1.499.058c.029.739.196 1.464.58 2.106l1.287-.772Zm-.368-1.392v1.5h2.16v-3h-2.16v1.5Zm11.042-6.736h-1.5a1.5 1.5 0 0 0 2.032 1.402l-.532-1.402Zm1.856-.704 1.415-.496a1.5 1.5 0 0 0-1.947-.907l.532 1.403Zm.432 1.232.47 1.424a1.5 1.5 0 0 0 .945-1.92l-1.415.496Zm-1.888.624-.471-1.424a1.5 1.5 0 0 0-.726 2.328l1.197-.904Zm1.184 1.568.894 1.204a1.5 1.5 0 0 0 .303-2.108l-1.197.904Zm-1.056.784-1.218.875a1.5 1.5 0 0 0 2.112.33l-.894-1.205Zm-1.184-1.648 1.218-.875a1.5 1.5 0 0 0-2.459.032l1.24.843Zm-1.12 1.648-.886 1.21a1.5 1.5 0 0 0 2.126-.367l-1.24-.843Zm-1.072-.784-1.197-.904a1.5 1.5 0 0 0 .311 2.115l.886-1.211Zm1.184-1.568 1.197.904a1.5 1.5 0 0 0-.72-2.326l-.477 1.422Zm-1.856-.624-1.416-.496a1.5 1.5 0 0 0 .938 1.918l.478-1.422Zm.432-1.232.544-1.398a1.5 1.5 0 0 0-1.96.902l1.416.496Zm1.808.704-.544 1.398a1.5 1.5 0 0 0 2.044-1.398h-1.5Zm0-2v-1.5a1.5 1.5 0 0 0-1.5 1.5h1.5Zm1.28 0h1.5a1.5 1.5 0 0 0-1.5-1.5v1.5Zm0 2 .532 1.402 1.856-.704-.532-1.402-.532-1.402-1.856.704.532 1.402Zm1.856-.704-1.416.496.432 1.232 1.416-.496 1.415-.496-.432-1.232-1.415.496Zm.432 1.232-.471-1.424-1.888.624.47 1.424.471 1.424 1.889-.624-.471-1.424Zm-1.888.624-1.197.904 1.184 1.568 1.197-.904 1.197-.904-1.184-1.568-1.197.904Zm1.184 1.568-.894-1.204-1.056.784.894 1.204.894 1.204 1.056-.784-.894-1.204Zm-1.056.784 1.218-.875-1.184-1.648-1.218.875-1.218.875 1.184 1.648 1.218-.875Zm-1.184-1.648-1.24-.843-1.12 1.648 1.24.843 1.24.843 1.12-1.648-1.24-.843Zm-1.12 1.648.885-1.21-1.072-.785-.885 1.211-.886 1.21 1.072.785.886-1.211Zm-1.072-.784 1.197.904 1.184-1.568-1.197-.904-1.197-.904-1.184 1.568 1.197.904Zm1.184-1.568.478-1.422-1.856-.624-.478 1.422-.478 1.422 1.856.624.478-1.422Zm-1.856-.624 1.415.496.432-1.232-1.415-.496-1.416-.496-.432 1.232 1.416.496Zm.432-1.232-.544 1.398 1.808.704.544-1.398.544-1.398-1.808-.704-.544 1.398Zm1.808.704h1.5v-2h-3v2h1.5Zm0-2v1.5h1.28v-3h-1.28v1.5Zm1.28 0h-1.5v2h3v-2h-1.5Zm2.547 3.152v-1.5a1.5 1.5 0 0 0-1.5 1.5h1.5Zm2.16 0h1.5a1.5 1.5 0 0 0-1.5-1.5v1.5Zm0 1.152h-1.5a1.5 1.5 0 0 0 1.5 1.5v-1.5Zm.048 0v1.5a1.5 1.5 0 0 0 1.287-.728l-1.287-.772Zm1.12-1.04.633 1.36.026-.012-.659-1.348Zm2.896-.08-.609 1.37.046.02.563-1.39Zm.928.688-1.2.9.016.02 1.184-.92Zm.464 1.072-1.47.294c.002.015.006.029.009.043l1.461-.337Zm.144 6.48v1.5a1.5 1.5 0 0 0 1.5-1.5h-1.5Zm-2.272 0h-1.5a1.5 1.5 0 0 0 1.5 1.5V30Zm-.32-6.192-1.272.795.012.018 1.26-.813Zm-2.48.048 1.192.911.013-.017-1.205-.894ZM40.325 30v1.5a1.5 1.5 0 0 0 1.5-1.5h-1.5Zm-2.272 0h-1.5a1.5 1.5 0 0 0 1.5 1.5V30Zm0-8.272v1.5h2.16v-3h-2.16v1.5Zm2.16 0h-1.5v1.152h3v-1.152h-1.5Zm0 1.152v1.5h.048v-3h-.048v1.5Zm.048 0 1.287.772c.15-.252.308-.378.466-.452l-.633-1.36-.632-1.36c-.76.353-1.349.92-1.774 1.628l1.286.772Zm1.12-1.04.659 1.348c.267-.13.512-.184.75-.184v-3c-.723 0-1.416.17-2.067.488l.658 1.348Zm1.408-.336v1.5c.485 0 .753.07.88.127l.608-1.371.61-1.37c-.642-.286-1.366-.386-2.098-.386v1.5Zm1.488.256-.563 1.39c.178.072.253.147.291.198l1.2-.9 1.2-.9a3.622 3.622 0 0 0-1.564-1.178l-.564 1.39Zm.928.688-1.184.92c.056.073.13.204.178.446l1.47-.294 1.471-.294a4.016 4.016 0 0 0-.75-1.699l-1.185.921Zm.464 1.072-1.461.337c.066.286.105.635.105 1.055h3a7.7 7.7 0 0 0-.182-1.73l-1.462.338Zm.144 1.392h-1.5V30h3v-5.088h-1.5Zm0 5.088v-1.5h-2.272v3h2.272V30Zm-2.272 0h1.5v-4.672h-3V30h1.5Zm0-4.672h1.5c0-.784-.112-1.64-.56-2.333l-1.26.813-1.26.813c-.019-.029.006-.004.033.124.026.125.047.315.047.583h1.5Zm-.32-1.52 1.272-.795c-.58-.928-1.55-1.217-2.408-1.217v3c.123 0 .13.02.076-.005a.518.518 0 0 1-.212-.188l1.272-.795Zm-1.136-.512v-1.5c-.922 0-1.9.293-2.548 1.166l1.204.894 1.205.894a.251.251 0 0 1-.084.07c-.001.001.06-.024.223-.024v-1.5Zm-1.344.56-1.191-.911c-.587.767-.725 1.79-.725 2.719h3c0-.346.03-.588.066-.748.038-.162.07-.187.042-.149l-1.192-.911Zm-.416 1.808h-1.5V30h3v-4.336h-1.5Zm0 4.336v-1.5h-2.272v3h2.272V30Zm-2.272 0h1.5v-8.272h-3V30h1.5Zm14.3-5.136-1.47.294.002.01 1.469-.304Zm-.335-.832-1.282.78.042.065 1.24-.845Zm-2.464-.592.756 1.296-.756-1.296Zm-.624.592-1.257-.82a1.244 1.244 0 0 0-.025.04l1.282.78Zm-.336.848-1.461-.34a1.097 1.097 0 0 0-.008.036l1.469.304Zm.368 2.8-1.272.795.04.062 1.232-.857Zm.624.608-.82 1.256.064.04.756-1.296Zm1.84 0-.756-1.296a1.53 1.53 0 0 0-.024.015l.78 1.281Zm.608-.592 1.281.78.014-.024-1.295-.756Zm.448 1.248h1.5a1.5 1.5 0 0 0-1.5-1.5v1.5Zm-.032 0v-1.5a1.5 1.5 0 0 0-1.29.733l1.29.767Zm-1.056.976.615 1.368a2.21 2.21 0 0 0 .015-.007l-.63-1.361Zm-3.088-.064-.695 1.33.024.012.67-1.342Zm-1.168-.976-1.219.875.026.035 1.193-.91Zm-.688-1.424-1.445.404.008.027 1.437-.431Zm0-3.264-1.434-.44a.691.691 0 0 0-.006.02l1.44.42Zm.688-1.376-1.18-.925-.016.02 1.196.905Zm1.152-.944.683 1.335.024-.012-.707-1.323Zm2.992-.048-.658 1.348.04.019.618-1.367Zm1.056.912-1.269.801a1.5 1.5 0 0 0 1.269.699v-1.5Zm.032 0v1.5a1.5 1.5 0 0 0 1.5-1.5h-1.5Zm0-4.16v-1.5a1.5 1.5 0 0 0-1.5 1.5h1.5Zm2.272 0h1.5a1.5 1.5 0 0 0-1.5-1.5v1.5Zm0 11.424v1.5a1.5 1.5 0 0 0 1.5-1.5h-1.5Zm-2.16 0h-1.5a1.5 1.5 0 0 0 1.5 1.5V30Zm-.032-4.16h1.5c0-.435-.041-.863-.127-1.28l-1.47.304-1.468.304c.042.202.065.425.065.672h1.5Zm-.096-.976 1.47-.294a3.734 3.734 0 0 0-.567-1.383l-1.24.845-1.239.845c.031.046.075.13.105.281l1.47-.294Zm-.336-.832 1.281-.78a3.246 3.246 0 0 0-1.093-1.093l-.78 1.281-.78 1.281c.04.025.066.05.09.09l1.282-.779Zm-.592-.592.78-1.281c-.541-.33-1.14-.443-1.708-.443v3c.179 0 .198.036.148.005l.78-1.281Zm-.928-.224v-1.5c-.571 0-1.162.115-1.7.428l.756 1.296.756 1.296c-.026.015.012-.02.188-.02v-1.5Zm-.944.224-.756-1.296a3.343 3.343 0 0 0-1.125 1.069l1.257.819 1.256.82a.343.343 0 0 1 .124-.116l-.756-1.296Zm-.624.592-1.282-.78c-.243.4-.41.834-.515 1.287l1.46.341 1.461.34c.044-.186.101-.317.157-.408l-1.281-.78Zm-.336.848-1.47-.304a6.305 6.305 0 0 0-.126 1.28h3c0-.247.023-.47.065-.672l-1.47-.304Zm-.096.976h-1.5c0 .438.051.872.151 1.3l1.46-.34 1.462-.34a2.713 2.713 0 0 1-.073-.62h-1.5Zm.112.96-1.461.34c.109.467.286.911.54 1.319l1.273-.795 1.272-.795a1.336 1.336 0 0 1-.163-.41l-1.461.341Zm.352.864-1.232.857c.28.4.626.74 1.036 1.007l.82-1.256.82-1.256a.756.756 0 0 1-.213-.209l-1.231.857Zm.624.608-.756 1.296c.525.306 1.1.428 1.668.428v-3a.573.573 0 0 1-.134-.013c-.02-.005-.025-.008-.022-.007l-.756 1.296Zm.912.224v1.5c.567 0 1.167-.113 1.708-.443l-.78-1.281-.78-1.281c.05-.03.03.005-.148.005v1.5Zm.928-.224.756 1.296c.464-.271.85-.643 1.133-1.108l-1.281-.78-1.282-.78a.207.207 0 0 1-.082.076l.756 1.296Zm.608-.592 1.295.756c.241-.413.402-.86.496-1.326l-1.471-.294-1.471-.294a1.291 1.291 0 0 1-.145.402l1.296.756Zm.32-.864 1.47.294c.085-.421.126-.85.126-1.286h-3c0 .247-.023.479-.067.698l1.47.294Zm.128 2.112v-1.5h-.032v3h.032v-1.5Zm-.032 0-1.29-.767a.888.888 0 0 1-.397.382l.63 1.361.631 1.361a3.881 3.881 0 0 0 1.715-1.57l-1.29-.767Zm-1.056.976-.616-1.368c-.204.092-.474.156-.84.156v3c.722 0 1.422-.128 2.071-.42l-.615-1.368Zm-1.456.288v-1.5c-.428 0-.735-.08-.961-.194l-.671 1.342-.671 1.342c.712.355 1.493.51 2.303.51v-1.5Zm-1.632-.352.695-1.33a1.97 1.97 0 0 1-.67-.556l-1.193.91-1.193.91a4.967 4.967 0 0 0 1.666 1.395l.695-1.329Zm-1.168-.976 1.218-.875a3.276 3.276 0 0 1-.47-.98l-1.436.431-1.437.431c.204.678.503 1.306.906 1.868l1.219-.875Zm-.688-1.424 1.444-.404a4.644 4.644 0 0 1-.168-1.26h-3c0 .707.092 1.398.28 2.068l1.444-.404Zm-.224-1.664h1.5c0-.418.056-.81.164-1.18l-1.44-.42-1.44-.42a7.185 7.185 0 0 0-.284 2.02h1.5Zm.224-1.6 1.434.44c.114-.373.268-.67.45-.91l-1.196-.906-1.196-.905a5.883 5.883 0 0 0-.926 1.842l1.434.439Zm.688-1.376 1.18.925c.172-.218.384-.395.655-.534l-.683-1.335-.684-1.335a4.926 4.926 0 0 0-1.649 1.354l1.18.925Zm1.152-.944.707 1.323c.207-.111.49-.191.893-.191v-3c-.813 0-1.597.165-2.308.545l.708 1.323Zm1.6-.368v1.5c.264 0 .503.056.734.168l.658-1.348.657-1.348a4.634 4.634 0 0 0-2.05-.472v1.5Zm1.392.32-.618 1.367a.88.88 0 0 1 .405.346l1.269-.801 1.268-.801a3.878 3.878 0 0 0-1.706-1.478l-.618 1.367Zm1.056.912v1.5h.032v-3h-.032v1.5Zm.032 0h1.5v-4.16h-3v4.16h1.5Zm0-4.16v1.5h2.272v-3H52.37v1.5Zm2.272 0h-1.5V30h3V18.576h-1.5Zm0 11.424v-1.5h-2.16v3h2.16V30Zm-2.16 0h1.5v-1.056h-3V30h1.5Z" mask="url(#a)"/></svg>