<svg xmlns="http://www.w3.org/2000/svg" width="80" height="48" fill="none"><path fill="#2E2E2E" d="M0 0h80v48H0z"/><path fill="#fff" d="M35.953 16.684a1.5 1.5 0 0 1 1.491 1.34 1.501 1.501 0 0 1 1.78.96l.3.851h1.136c.254 0 .494.065.703.176.594-.26 1.222-.4 1.873-.4.714 0 1.421.097 2.051.367h.001l.026.01.02.01h-.001c.56.234 1.059.585 1.45 1.072a4.96 4.96 0 0 1 1.256-.918c.708-.377 1.489-.54 2.298-.54.333 0 .66.035.98.103v-1.53a1.5 1.5 0 0 1 1.5-1.5h2.272a1.5 1.5 0 0 1 1.5 1.5v11.423a1.5 1.5 0 0 1-1.5 1.5h-2.16c-.229 0-.444-.053-.638-.145a5.072 5.072 0 0 1-1.906.353 5.21 5.21 0 0 1-2.032-.387l-.271-.124-.023-.011a5.206 5.206 0 0 1-.56-.34c-.27.394-.724.654-1.238.654h-2.273a1.5 1.5 0 0 1-1.5-1.5v-4.672c0-.23-.019-.403-.04-.526-.031.002-.057.002-.077.006-.009.025-.021.06-.032.108-.037.16-.066.402-.066.748v4.336a1.5 1.5 0 0 1-1.5 1.5H38.5a1.5 1.5 0 0 1-1.5-1.5v-4.514a1.498 1.498 0 0 1-1.672-.448 1.498 1.498 0 0 1-1.806.39c.048.072.094.147.137.223.306.538.415 1.128.415 1.693 0 .748-.155 1.49-.55 2.148a4.07 4.07 0 0 1-1.126 1.235l-.203.138a4.899 4.899 0 0 1-1.747.674v-.002c-.541.113-1.092.17-1.65.17-.435 0-.866-.032-1.291-.098l-.424-.077a5.373 5.373 0 0 1-1.514-.556l-.199-.116-.017-.01a4.36 4.36 0 0 1-1.199-1.134l-.136-.198-.026-.043c-.336-.56-.507-1.186-.563-1.829l-.018-.276a1.502 1.502 0 0 1 .418-1.099c.095-.098.202-.18.318-.248l-.102-.155-.015-.024c-.31-.532-.427-1.115-.427-1.684 0-.713.134-1.439.513-2.078l.019-.03.134-.2a3.781 3.781 0 0 1 1.221-1.105 4.872 4.872 0 0 1 1.616-.588 8.174 8.174 0 0 1 3.194.003H30.3c.272.055.538.13.795.225l.354-1.011.058-.14a1.502 1.502 0 0 1 1.676-.829 1.5 1.5 0 0 1 1.49-1.33h1.28Zm-7.25 4.428a6.68 6.68 0 0 0-1.311.128l-.313.068c-.304.08-.584.196-.84.348l-.125.075c-.284.184-.52.426-.707.725l-.071.132c-.155.32-.232.713-.232 1.18l.013.262c.028.252.098.474.21.666.15.245.347.453.592.624l.19.115c.196.11.41.205.642.285.32.096.646.181.976.256.811.17 1.44.341 1.888.512l.161.068c.352.168.528.402.528.7l-.01.146a.815.815 0 0 1-.135.366 1.195 1.195 0 0 1-.368.32l-.107.053c-.112.05-.236.091-.373.123l-.251.036a2.536 2.536 0 0 1-.245.012l-.167-.005c-.11-.006-.22-.02-.328-.04l-.16-.035a1.798 1.798 0 0 1-.545-.24 1.55 1.55 0 0 1-.4-.432 1.353 1.353 0 0 1-.144-.64h-2.16c.021.554.144 1.019.368 1.392.235.363.528.656.88.88a3.81 3.81 0 0 0 1.233.48 6.8 6.8 0 0 0 1.05.135l.357.009c.469 0 .928-.048 1.376-.144a3.472 3.472 0 0 0 1.082-.383l.135-.082c.351-.223.634-.517.847-.88.196-.326.307-.718.331-1.175l.005-.2c0-.384-.074-.704-.223-.96a1.95 1.95 0 0 0-.593-.657 3.026 3.026 0 0 0-.848-.431 9.096 9.096 0 0 0-.96-.272c-.32-.074-.635-.144-.944-.208-.155-.032-.301-.066-.44-.1l-.392-.108a2.019 2.019 0 0 1-.455-.228l-.12-.092a.624.624 0 0 1-.225-.496c0-.128.024-.235.072-.321l.056-.08a.823.823 0 0 1 .305-.239c.096-.04.197-.068.305-.084l.11-.012c.15-.022.289-.032.417-.032l.15.003c.342.018.644.097.905.237l.106.063c.232.162.362.434.39.817h2.16c-.042-.512-.176-.934-.4-1.264a2.696 2.696 0 0 0-.161-.229 2.448 2.448 0 0 0-.533-.508l-.121-.079a3.3 3.3 0 0 0-.825-.357l-.312-.075a6.316 6.316 0 0 0-.963-.12l-.333-.008Zm24.114 1.232h-.032a2.38 2.38 0 0 0-1.055-.912 3.126 3.126 0 0 0-1.21-.315l-.183-.005c-.608 0-1.141.123-1.6.368l-.169.092a3.402 3.402 0 0 0-.983.852l-.083.114c-.043.061-.082.126-.122.19a4.367 4.367 0 0 0-.483 1.072 5.863 5.863 0 0 0-.225 1.6l.015.428a6.117 6.117 0 0 0 .21 1.236c.16.533.39 1.008.688 1.424a3.5 3.5 0 0 0 1.168.977c.41.205.878.32 1.403.345l.229.006c.544 0 1.03-.096 1.456-.288.437-.203.79-.528 1.056-.976h.032v1.056h2.16V18.184h-2.272v4.16Zm-9.58-1.232c-.48 0-.95.112-1.408.336-.459.213-.832.56-1.12 1.04h-.049v-1.153h-2.159v8.273h2.272v-4.336c0-.842.138-1.445.415-1.808.278-.373.726-.56 1.344-.56l.197.008c.44.037.753.205.94.504.213.33.32.837.32 1.52v4.672h2.272V24.52c0-.512-.049-.977-.145-1.393v-.005a2.765 2.765 0 0 0-.26-.747 2.125 2.125 0 0 0-1.13-1.007c-.337-.15-.76-.234-1.267-.252l-.223-.004Zm7.976 1.726c.256.028.476.098.66.21.245.15.443.347.592.592.16.235.272.512.336.832.064.31.096.635.096.976l-.006.254a4.964 4.964 0 0 1-.09.738l-.056.234a2.682 2.682 0 0 1-.264.63c-.149.245-.352.443-.608.592-.245.15-.554.224-.928.224l-.255-.014a1.662 1.662 0 0 1-.657-.21 2.257 2.257 0 0 1-.624-.608 2.738 2.738 0 0 1-.288-.63l-.064-.234a4.26 4.26 0 0 1-.105-.72l-.007-.24c0-.341.032-.667.096-.976.075-.32.187-.603.336-.848.12-.184.267-.341.441-.471l.183-.12c.256-.15.571-.225.944-.225l.268.014Zm-.268 1.486a.742.742 0 0 0-.17.015l-.018.004a.344.344 0 0 0-.116.107 1.432 1.432 0 0 0-.136.365c-.039.195-.06.411-.06.65 0 .201.023.407.073.619.035.15.084.269.138.366a.753.753 0 0 0 .156.157.575.575 0 0 0 .133.013c.099 0 .148-.011.165-.016l.007-.004a.208.208 0 0 0 .077-.07c.054-.096.103-.22.136-.384a3.556 3.556 0 0 0 .002-1.37l-.002-.01a1.012 1.012 0 0 0-.052-.18l-.052-.101a1.487 1.487 0 0 1-.042-.066.244.244 0 0 0-.08-.082.706.706 0 0 0-.159-.013Zm-16.272-4.14-1.808-.704-.432 1.231 1.856.624-1.184 1.569 1.072.784 1.12-1.648 1.184 1.648.52-.387.536-.397-.536-.71-.648-.859.665-.22 1.223-.404-.273-.777-.16-.454-1.855.704v-2h-1.28v2Z"/></svg>