<svg width="80" height="48" viewBox="0 0 80 48" fill="none" xmlns="http://www.w3.org/2000/svg">
<rect width="80" height="48" fill="#2E2E2E"/>
<mask id="path-1-outside-1_344_467" maskUnits="userSpaceOnUse" x="22" y="17" width="35" height="15" fill="black">
<rect fill="white" x="22" y="17" width="35" height="15"/>
<path d="M26.624 27.312C26.624 27.5573 26.672 27.7707 26.768 27.952C26.8747 28.1227 27.008 28.2667 27.168 28.384C27.328 28.4907 27.5093 28.5707 27.712 28.624C27.9253 28.6773 28.144 28.704 28.368 28.704C28.528 28.704 28.6933 28.688 28.864 28.656C29.0453 28.6133 29.2053 28.5547 29.344 28.48C29.4933 28.3947 29.616 28.288 29.712 28.16C29.808 28.0213 29.856 27.8507 29.856 27.648C29.856 27.3067 29.6267 27.0507 29.168 26.88C28.72 26.7093 28.0907 26.5387 27.28 26.368C26.9493 26.2933 26.624 26.208 26.304 26.112C25.9947 26.0053 25.7173 25.872 25.472 25.712C25.2267 25.5413 25.0293 25.3333 24.88 25.088C24.7307 24.832 24.656 24.5227 24.656 24.16C24.656 23.6267 24.7573 23.1893 24.96 22.848C25.1733 22.5067 25.4507 22.24 25.792 22.048C26.1333 21.8453 26.5173 21.7067 26.944 21.632C27.3707 21.5467 27.808 21.504 28.256 21.504C28.704 21.504 29.136 21.5467 29.552 21.632C29.9787 21.7173 30.3573 21.8613 30.688 22.064C31.0187 22.2667 31.2907 22.5387 31.504 22.88C31.728 23.2107 31.8613 23.632 31.904 24.144L29.744 24.144C29.712 23.7067 29.5467 23.4133 29.248 23.264C28.9493 23.104 28.5973 23.024 28.192 23.024C28.064 23.024 27.9253 23.0347 27.776 23.056C27.6267 23.0667 27.488 23.0987 27.36 23.152C27.2427 23.2053 27.1413 23.2853 27.056 23.392C26.9707 23.488 26.928 23.6213 26.928 23.792C26.928 23.9947 27.0027 24.16 27.152 24.288C27.3013 24.416 27.4933 24.5227 27.728 24.608C27.9733 24.6827 28.2507 24.752 28.56 24.816C28.8693 24.88 29.184 24.9493 29.504 25.024C29.8347 25.0987 30.1547 25.1893 30.464 25.296C30.784 25.4027 31.0667 25.5467 31.312 25.728C31.5573 25.8987 31.7547 26.1173 31.904 26.384C32.0533 26.64 32.128 26.96 32.128 27.344C32.128 27.888 32.016 28.3467 31.792 28.72C31.5787 29.0827 31.296 29.376 30.944 29.6C30.592 29.824 30.1867 29.9787 29.728 30.064C29.28 30.16 28.8213 30.208 28.352 30.208C27.872 30.208 27.4027 30.16 26.944 30.064C26.4853 29.968 26.0747 29.808 25.712 29.584C25.36 29.36 25.0667 29.0667 24.832 28.704C24.608 28.3307 24.4853 27.8667 24.464 27.312L26.624 27.312ZM35.5058 20.576L37.3618 19.872L37.7938 21.104L35.9058 21.728L37.0898 23.296L36.0338 24.08L34.8498 22.432L33.7298 24.08L32.6577 23.296L33.8418 21.728L31.9857 21.104L32.4177 19.872L34.2257 20.576L34.2257 18.576L35.5058 18.576L35.5058 20.576ZM38.0534 21.728L40.2134 21.728L40.2134 22.88L40.2614 22.88C40.5494 22.4 40.9227 22.0533 41.3814 21.84C41.84 21.616 42.3094 21.504 42.7894 21.504C43.3974 21.504 43.8934 21.5893 44.2774 21.76C44.672 21.92 44.9814 22.1493 45.2054 22.448C45.4294 22.736 45.584 23.0933 45.6694 23.52C45.7654 23.936 45.8134 24.4 45.8134 24.912L45.8134 30L43.5414 30L43.5414 25.328C43.5414 24.6453 43.4347 24.1387 43.2214 23.808C43.008 23.4667 42.6294 23.296 42.0854 23.296C41.4667 23.296 41.0187 23.4827 40.7414 23.856C40.464 24.2187 40.3254 24.8213 40.3254 25.664L40.3254 30L38.0534 30L38.0534 21.728ZM52.4498 25.84C52.4498 25.4987 52.4178 25.1733 52.3538 24.864C52.2898 24.544 52.1778 24.2667 52.0178 24.032C51.8684 23.7867 51.6711 23.5893 51.4258 23.44C51.1804 23.2907 50.8711 23.216 50.4978 23.216C50.1244 23.216 49.8098 23.2907 49.5538 23.44C49.2978 23.5893 49.0898 23.7867 48.9298 24.032C48.7804 24.2773 48.6684 24.56 48.5938 24.88C48.5298 25.1893 48.4978 25.5147 48.4978 25.856C48.4978 26.176 48.5351 26.496 48.6098 26.816C48.6844 27.136 48.8018 27.424 48.9618 27.68C49.1324 27.9253 49.3404 28.128 49.5858 28.288C49.8418 28.4373 50.1458 28.512 50.4978 28.512C50.8711 28.512 51.1804 28.4373 51.4258 28.288C51.6818 28.1387 51.8844 27.9413 52.0338 27.696C52.1831 27.44 52.2898 27.152 52.3538 26.832C52.4178 26.512 52.4498 26.1813 52.4498 25.84ZM52.4818 28.944L52.4498 28.944C52.1831 29.392 51.8311 29.7173 51.3938 29.92C50.9671 30.112 50.4818 30.208 49.9378 30.208C49.3191 30.208 48.7751 30.0907 48.3058 29.856C47.8364 29.6107 47.4471 29.2853 47.1378 28.88C46.8391 28.464 46.6098 27.9893 46.4498 27.456C46.3004 26.9227 46.2258 26.368 46.2258 25.792C46.2258 25.2373 46.3004 24.704 46.4498 24.192C46.6098 23.6693 46.8391 23.2107 47.1378 22.816C47.4471 22.4213 47.8311 22.1067 48.2898 21.872C48.7484 21.6267 49.2818 21.504 49.8898 21.504C50.3804 21.504 50.8444 21.6107 51.2818 21.824C51.7298 22.0267 52.0818 22.3307 52.3378 22.736L52.3698 22.736L52.3698 18.576L54.6418 18.576L54.6418 30L52.4818 30L52.4818 28.944Z"/>
</mask>
<path d="M26.624 27.312L28.124 27.312C28.124 26.4836 27.4524 25.812 26.624 25.812L26.624 27.312ZM26.768 27.952L25.4423 28.6538C25.4591 28.6855 25.477 28.7166 25.496 28.747L26.768 27.952ZM27.168 28.384L26.281 29.5936C26.299 29.6068 26.3173 29.6197 26.336 29.6321L27.168 28.384ZM27.712 28.624L27.3303 30.0746C27.3362 30.0762 27.3422 30.0777 27.3482 30.0792L27.712 28.624ZM28.864 28.656L29.1404 30.1303C29.1629 30.1261 29.1853 30.1214 29.2076 30.1161L28.864 28.656ZM29.344 28.48L30.0551 29.8007C30.0662 29.7947 30.0773 29.7886 30.0882 29.7824L29.344 28.48ZM29.712 28.16L30.912 29.06C30.9234 29.0448 30.9345 29.0294 30.9453 29.0138L29.712 28.16ZM29.168 26.88L28.634 28.2818L28.6449 28.2858L29.168 26.88ZM27.28 26.368L26.9496 27.8312C26.9567 27.8328 26.9638 27.8343 26.971 27.8358L27.28 26.368ZM26.304 26.112L25.815 27.5301C25.8342 27.5367 25.8535 27.5429 25.873 27.5487L26.304 26.112ZM25.472 25.712L24.6154 26.9434C24.6277 26.9519 24.6401 26.9602 24.6526 26.9684L25.472 25.712ZM24.88 25.088L23.5843 25.8438C23.589 25.8519 23.5938 25.8599 23.5987 25.8679L24.88 25.088ZM24.96 22.848L23.688 22.053C23.682 22.0627 23.676 22.0724 23.6702 22.0822L24.96 22.848ZM25.792 22.048L26.5274 23.3554C26.5376 23.3496 26.5477 23.3438 26.5578 23.3378L25.792 22.048ZM26.944 21.632L27.2026 23.1095C27.2145 23.1075 27.2263 23.1052 27.2382 23.1029L26.944 21.632ZM29.552 21.632L29.2506 23.1014L29.2578 23.1029L29.552 21.632ZM30.688 22.064L29.9042 23.3429L29.9042 23.3429L30.688 22.064ZM31.504 22.88L30.232 23.675C30.2418 23.6906 30.2518 23.706 30.2621 23.7213L31.504 22.88ZM31.904 24.144L31.904 25.644C32.3235 25.644 32.7238 25.4684 33.0078 25.1597C33.2919 24.851 33.4337 24.4375 33.3988 24.0194L31.904 24.144ZM29.744 24.144L28.248 24.2535C28.3054 25.0373 28.958 25.644 29.744 25.644L29.744 24.144ZM29.248 23.264L28.5397 24.5862C28.5521 24.5929 28.5646 24.5993 28.5772 24.6056L29.248 23.264ZM27.776 23.056L27.8829 24.5522C27.9181 24.5497 27.9532 24.5459 27.9881 24.5409L27.776 23.056ZM27.36 23.152L26.7831 21.7674C26.7684 21.7735 26.7538 21.7799 26.7393 21.7865L27.36 23.152ZM27.056 23.392L28.1771 24.3885C28.1944 24.3691 28.2111 24.3493 28.2273 24.329L27.056 23.392ZM27.728 24.608L27.2154 26.0177C27.2404 26.0268 27.2657 26.0352 27.2913 26.043L27.728 24.608ZM28.56 24.816L28.2561 26.2849L28.2561 26.2849L28.56 24.816ZM29.504 25.024L29.1631 26.4848L29.1736 26.4872L29.504 25.024ZM30.464 25.296L29.975 26.7141C29.9799 26.7157 29.9848 26.7174 29.9897 26.719L30.464 25.296ZM31.312 25.728L30.4204 26.9343C30.432 26.9428 30.4436 26.9512 30.4554 26.9594L31.312 25.728ZM31.904 26.384L30.5952 27.1169C30.5995 27.1246 30.6039 27.1322 30.6083 27.1398L31.904 26.384ZM31.792 28.72L30.5057 27.9482L30.4991 27.9595L31.792 28.72ZM30.944 29.6L31.7493 30.8655L31.7493 30.8655L30.944 29.6ZM29.728 30.064L29.4536 28.5893C29.4403 28.5918 29.427 28.5945 29.4137 28.5973L29.728 30.064ZM26.944 30.064L27.2513 28.5958L27.2513 28.5958L26.944 30.064ZM25.712 29.584L24.9067 30.8495C24.9124 30.8531 24.918 30.8567 24.9238 30.8602L25.712 29.584ZM24.832 28.704L23.5458 29.4757C23.5545 29.4903 23.5634 29.5047 23.5726 29.5189L24.832 28.704ZM24.464 27.312L24.464 25.812C24.0562 25.812 23.6659 25.9781 23.3831 26.2719C23.1004 26.5658 22.9494 26.9621 22.9651 27.3696L24.464 27.312ZM26.624 27.312L25.124 27.312C25.124 27.7543 25.2115 28.2178 25.4423 28.6538L26.768 27.952L28.0937 27.2502C28.1119 27.2845 28.1201 27.3122 28.1234 27.3267C28.1265 27.3403 28.124 27.3371 28.124 27.312L26.624 27.312ZM26.768 27.952L25.496 28.747C25.702 29.0767 25.9653 29.3621 26.281 29.5936L27.168 28.384L28.055 27.1744C28.0507 27.1712 28.0473 27.1687 28.04 27.157L26.768 27.952ZM27.168 28.384L26.336 29.6321C26.6457 29.8386 26.9817 29.9829 27.3303 30.0746L27.712 28.624L28.0937 27.1734C28.037 27.1584 28.0103 27.1428 28.0001 27.1359L27.168 28.384ZM27.712 28.624L27.3482 30.0792C27.6827 30.1628 28.0237 30.204 28.368 30.204L28.368 28.704L28.368 27.204C28.2643 27.204 28.1679 27.1918 28.0758 27.1688L27.712 28.624ZM28.368 28.704L28.368 30.204C28.6282 30.204 28.8863 30.178 29.1404 30.1303L28.864 28.656L28.5876 27.1817C28.5004 27.198 28.4278 27.204 28.368 27.204L28.368 28.704ZM28.864 28.656L29.2076 30.1161C29.4944 30.0486 29.7818 29.9479 30.0551 29.8007L29.344 28.48L28.6329 27.1593C28.6289 27.1614 28.5963 27.178 28.5204 27.1959L28.864 28.656ZM29.344 28.48L30.0882 29.7824C30.4018 29.6031 30.6841 29.3638 30.912 29.06L29.712 28.16L28.512 27.26C28.5285 27.238 28.5465 27.2191 28.5637 27.2041C28.5808 27.1893 28.594 27.181 28.5998 27.1776L29.344 28.48ZM29.712 28.16L30.9453 29.0138C31.2475 28.5773 31.356 28.0931 31.356 27.648L29.856 27.648L28.356 27.648C28.356 27.6082 28.3685 27.4654 28.4787 27.3062L29.712 28.16ZM29.856 27.648L31.356 27.648C31.356 27.1051 31.1605 26.6001 30.8013 26.1991C30.4702 25.8296 30.0578 25.6106 29.6911 25.4742L29.168 26.88L28.6449 28.2858C28.7368 28.32 28.6685 28.3144 28.5667 28.2009C28.5114 28.1391 28.4541 28.0536 28.4127 27.9456C28.3711 27.8375 28.356 27.7341 28.356 27.648L29.856 27.648ZM29.168 26.88L29.702 25.4783C29.1469 25.2668 28.4297 25.0772 27.589 24.9002L27.28 26.368L26.971 27.8358C27.7516 28.0002 28.2931 28.1519 28.634 28.2817L29.168 26.88ZM27.28 26.368L27.6104 24.9048C27.3131 24.8377 27.0213 24.7611 26.735 24.6753L26.304 26.112L25.873 27.5487C26.2267 27.6549 26.5856 27.749 26.9496 27.8312L27.28 26.368ZM26.304 26.112L26.793 24.6939C26.5866 24.6228 26.4224 24.541 26.2914 24.4556L25.472 25.712L24.6526 26.9684C25.0122 27.203 25.4027 27.3879 25.815 27.5301L26.304 26.112ZM25.472 25.712L26.3286 24.4806C26.2476 24.4243 26.1976 24.3678 26.1613 24.3081L24.88 25.088L23.5987 25.8679C23.861 26.2989 24.2057 26.6584 24.6154 26.9434L25.472 25.712ZM24.88 25.088L26.1757 24.3322C26.1871 24.3518 26.156 24.3162 26.156 24.16L24.656 24.16L23.156 24.16C23.156 24.7291 23.2742 25.3122 23.5843 25.8438L24.88 25.088ZM24.656 24.16L26.156 24.16C26.156 23.8067 26.2242 23.6569 26.2498 23.6138L24.96 22.848L23.6702 22.0822C23.2905 22.7217 23.156 23.4466 23.156 24.16L24.656 24.16ZM24.96 22.848L26.232 23.643C26.316 23.5085 26.4113 23.4207 26.5274 23.3554L25.792 22.048L25.0566 20.7406C24.4901 21.0593 24.0306 21.5048 23.688 22.053L24.96 22.848ZM25.792 22.048L26.5578 23.3378C26.7292 23.236 26.9386 23.1557 27.2026 23.1095L26.944 21.632L26.6854 20.1545C26.0961 20.2576 25.5375 20.4546 25.0262 20.7582L25.792 22.048ZM26.944 21.632L27.2382 23.1029C27.5652 23.0375 27.9039 23.004 28.256 23.004L28.256 21.504L28.256 20.004C27.7121 20.004 27.1762 20.0559 26.6498 20.1611L26.944 21.632ZM28.256 21.504L28.256 23.004C28.6083 23.004 28.939 23.0375 29.2506 23.1014L29.552 21.632L29.8534 20.1626C29.333 20.0558 28.7997 20.004 28.256 20.004L28.256 21.504ZM29.552 21.632L29.2578 23.1029C29.5322 23.1577 29.7413 23.2431 29.9042 23.3429L30.688 22.064L31.4718 20.7851C30.9733 20.4796 30.4251 20.2769 29.8462 20.1611L29.552 21.632ZM30.688 22.064L29.9042 23.3429C30.0293 23.4196 30.1369 23.5229 30.232 23.675L31.504 22.88L32.776 22.085C32.4444 21.5544 32.0081 21.1138 31.4718 20.7851L30.688 22.064ZM31.504 22.88L30.2621 23.7213C30.306 23.7861 30.3819 23.9414 30.4092 24.2686L31.904 24.144L33.3988 24.0194C33.3407 23.3226 33.15 22.6352 32.7459 22.0387L31.504 22.88ZM31.904 24.144L31.904 22.644L29.744 22.644L29.744 24.144L29.744 25.644L31.904 25.644L31.904 24.144ZM29.744 24.144L31.24 24.0345C31.1832 23.2578 30.8378 22.3819 29.9188 21.9224L29.248 23.264L28.5772 24.6056C28.5238 24.5789 28.4661 24.5403 28.4116 24.4883C28.3572 24.4364 28.317 24.3817 28.2893 24.3325C28.2358 24.2377 28.2434 24.1913 28.248 24.2535L29.744 24.144ZM29.248 23.264L29.9563 21.9418C29.4009 21.6442 28.7962 21.524 28.192 21.524L28.192 23.024L28.192 24.524C28.3985 24.524 28.4978 24.5638 28.5397 24.5862L29.248 23.264ZM28.192 23.024L28.192 21.524C27.9818 21.524 27.7714 21.5414 27.5639 21.5711L27.776 23.056L27.9881 24.5409C28.0792 24.5279 28.1462 24.524 28.192 24.524L28.192 23.024ZM27.776 23.056L27.6691 21.5598C27.371 21.5811 27.0722 21.6469 26.7831 21.7674L27.36 23.152L27.9369 24.5366C27.9213 24.5431 27.9077 24.5472 27.8973 24.5496C27.887 24.552 27.8818 24.5523 27.8829 24.5522L27.776 23.056ZM27.36 23.152L26.7393 21.7865C26.3945 21.9432 26.1083 22.1755 25.8847 22.455L27.056 23.392L28.2273 24.329C28.1744 24.3952 28.0909 24.4675 27.9807 24.5175L27.36 23.152ZM27.056 23.392L25.9349 22.3955C25.5347 22.8457 25.428 23.3767 25.428 23.792L26.928 23.792L28.428 23.792C28.428 23.8659 28.4067 24.1303 28.1771 24.3885L27.056 23.392ZM26.928 23.792L25.428 23.792C25.428 24.4173 25.6826 25.0041 26.1758 25.4269L27.152 24.288L28.1282 23.1491C28.2062 23.216 28.2905 23.3165 28.3511 23.4506C28.4111 23.5836 28.428 23.7055 28.428 23.792L26.928 23.792ZM27.152 24.288L26.1758 25.4269C26.4935 25.6992 26.8549 25.8866 27.2154 26.0177L27.728 24.608L28.2406 23.1983C28.1318 23.1587 28.1092 23.1328 28.1282 23.1491L27.152 24.288ZM27.728 24.608L27.2913 26.043C27.589 26.1336 27.9118 26.2137 28.2561 26.2849L28.56 24.816L28.8639 23.3471C28.5895 23.2903 28.3577 23.2317 28.1647 23.173L27.728 24.608ZM28.56 24.816L28.2561 26.2849C28.5526 26.3462 28.8549 26.4128 29.1632 26.4848L29.504 25.024L29.8448 23.5632C29.5131 23.4858 29.1861 23.4138 28.8639 23.3471L28.56 24.816ZM29.504 25.024L29.1736 26.4872C29.4525 26.5501 29.7195 26.626 29.975 26.7141L30.464 25.296L30.953 23.8779C30.5898 23.7527 30.2168 23.6472 29.8344 23.5608L29.504 25.024ZM30.464 25.296L29.9897 26.719C30.1757 26.781 30.3145 26.856 30.4204 26.9343L31.312 25.728L32.2036 24.5217C31.8188 24.2373 31.3923 24.0243 30.9383 23.873L30.464 25.296ZM31.312 25.728L30.4554 26.9594C30.5099 26.9973 30.5543 27.0438 30.5952 27.1169L31.904 26.384L33.2128 25.6511C32.955 25.1908 32.6048 24.8001 32.1686 24.4966L31.312 25.728ZM31.904 26.384L30.6083 27.1398C30.5899 27.1081 30.628 27.1488 30.628 27.344L32.128 27.344L33.628 27.344C33.628 26.7712 33.5168 26.1719 33.1997 25.6282L31.904 26.384ZM32.128 27.344L30.628 27.344C30.628 27.6834 30.5589 27.8597 30.5058 27.9483L31.792 28.72L33.0782 29.4917C33.4731 28.8337 33.628 28.0926 33.628 27.344L32.128 27.344ZM31.792 28.72L30.4991 27.9595C30.405 28.1194 30.2888 28.239 30.1387 28.3345L30.944 29.6L31.7493 30.8655C32.3032 30.513 32.7523 30.0459 33.0849 29.4805L31.792 28.72ZM30.944 29.6L30.1387 28.3345C29.9667 28.4439 29.7458 28.5349 29.4536 28.5893L29.728 30.064L30.0024 31.5387C30.6275 31.4224 31.2173 31.2041 31.7493 30.8655L30.944 29.6ZM29.728 30.064L29.4137 28.5973C29.0715 28.6706 28.7183 28.708 28.352 28.708L28.352 30.208L28.352 31.708C28.9244 31.708 29.4885 31.6494 30.0423 31.5307L29.728 30.064ZM28.352 30.208L28.352 28.708C27.9727 28.708 27.6065 28.6702 27.2513 28.5958L26.944 30.064L26.6367 31.5322C27.1989 31.6498 27.7713 31.708 28.352 31.708L28.352 30.208ZM26.944 30.064L27.2513 28.5958C26.946 28.5319 26.7009 28.4318 26.5002 28.3078L25.712 29.584L24.9238 30.8602C25.4484 31.1842 26.0247 31.4041 26.6367 31.5322L26.944 30.064ZM25.712 29.584L26.5173 28.3185C26.3538 28.2144 26.2131 28.0773 26.0914 27.8891L24.832 28.704L23.5726 29.5189C23.9202 30.0561 24.3662 30.5056 24.9067 30.8495L25.712 29.584ZM24.832 28.704L26.1182 27.9323C26.055 27.8268 25.9771 27.6246 25.9629 27.2544L24.464 27.312L22.9651 27.3696C22.9935 28.1087 23.161 28.8345 23.5458 29.4757L24.832 28.704ZM24.464 27.312L24.464 28.812L26.624 28.812L26.624 27.312L26.624 25.812L24.464 25.812L24.464 27.312ZM35.5058 20.576L34.0058 20.576C34.0058 21.069 34.248 21.5305 34.6537 21.8105C35.0594 22.0905 35.5768 22.1533 36.0377 21.9785L35.5058 20.576ZM37.3618 19.872L38.7773 19.3757C38.6434 18.994 38.3612 18.6826 37.9945 18.512C37.6279 18.3414 37.2079 18.3261 36.8298 18.4695L37.3618 19.872ZM37.7938 21.104L38.2645 22.5282C38.6467 22.4019 38.962 22.1273 39.1397 21.7661C39.3174 21.4049 39.3424 20.9875 39.2093 20.6077L37.7938 21.104ZM35.9058 21.728L35.435 20.3038C34.9758 20.4556 34.6179 20.8195 34.4738 21.2813C34.3298 21.743 34.4172 22.2459 34.7087 22.6319L35.9058 21.728ZM37.0898 23.296L37.9839 24.5004C38.305 24.262 38.5176 23.9052 38.5745 23.5093C38.6314 23.1135 38.5278 22.7113 38.2868 22.3921L37.0898 23.296ZM36.0338 24.08L34.8156 24.9552C35.05 25.2816 35.4057 25.5002 35.8028 25.5621C36.1999 25.624 36.6052 25.5239 36.9279 25.2844L36.0338 24.08ZM34.8498 22.432L36.0679 21.5568C35.7821 21.1589 35.32 20.9257 34.8302 20.9321C34.3403 20.9385 33.8845 21.1837 33.6091 21.5889L34.8498 22.432ZM33.7298 24.08L32.8443 25.2908C33.1726 25.5309 33.5845 25.6274 33.9853 25.5581C34.3862 25.4888 34.7417 25.2596 34.9704 24.9231L33.7298 24.08ZM32.6577 23.296L31.4607 22.3921C31.2186 22.7128 31.1152 23.1171 31.1738 23.5147C31.2323 23.9122 31.4479 24.2696 31.7723 24.5068L32.6577 23.296ZM33.8418 21.728L35.0388 22.6319C35.3295 22.247 35.4173 21.7458 35.2748 21.2849C35.1323 20.8241 34.777 20.4599 34.3198 20.3062L33.8418 21.728ZM31.9857 21.104L30.5702 20.6077C30.4375 20.9862 30.4619 21.4022 30.6381 21.7627C30.8143 22.1231 31.1275 22.3979 31.5077 22.5258L31.9857 21.104ZM32.4177 19.872L32.962 18.4742C32.583 18.3267 32.1604 18.3393 31.7909 18.5092C31.4215 18.6792 31.1368 18.9919 31.0022 19.3757L32.4177 19.872ZM34.2257 20.576L33.6815 21.9738C34.143 22.1535 34.6635 22.0938 35.0724 21.8142C35.4812 21.5347 35.7257 21.0713 35.7257 20.576L34.2257 20.576ZM34.2257 18.576L34.2257 17.076C33.3973 17.076 32.7257 17.7476 32.7257 18.576L34.2257 18.576ZM35.5058 18.576L37.0058 18.576C37.0058 17.7476 36.3342 17.076 35.5058 17.076L35.5058 18.576ZM35.5058 20.576L36.0377 21.9785L37.8937 21.2745L37.3618 19.872L36.8298 18.4695L34.9738 19.1735L35.5058 20.576ZM37.3618 19.872L35.9462 20.3683L36.3782 21.6003L37.7938 21.104L39.2093 20.6077L38.7773 19.3757L37.3618 19.872ZM37.7938 21.104L37.323 19.6798L35.435 20.3038L35.9058 21.728L36.3765 23.1522L38.2645 22.5282L37.7938 21.104ZM35.9058 21.728L34.7087 22.6319L35.8927 24.1999L37.0898 23.296L38.2868 22.3921L37.1028 20.8241L35.9058 21.728ZM37.0898 23.296L36.1956 22.0916L35.1396 22.8756L36.0338 24.08L36.9279 25.2844L37.9839 24.5004L37.0898 23.296ZM36.0338 24.08L37.2519 23.2048L36.0679 21.5568L34.8498 22.432L33.6316 23.3072L34.8156 24.9552L36.0338 24.08ZM34.8498 22.432L33.6091 21.5889L32.4891 23.2369L33.7298 24.08L34.9704 24.9231L36.0904 23.2751L34.8498 22.432ZM33.7298 24.08L34.6152 22.8692L33.5432 22.0852L32.6577 23.296L31.7723 24.5068L32.8443 25.2908L33.7298 24.08ZM32.6577 23.296L33.8548 24.1999L35.0388 22.6319L33.8418 21.728L32.6447 20.8241L31.4607 22.3921L32.6577 23.296ZM33.8418 21.728L34.3198 20.3062L32.4638 19.6822L31.9857 21.104L31.5077 22.5258L33.3637 23.1498L33.8418 21.728ZM31.9857 21.104L33.4013 21.6003L33.8333 20.3683L32.4177 19.872L31.0022 19.3757L30.5702 20.6077L31.9857 21.104ZM32.4177 19.872L31.8735 21.2698L33.6815 21.9738L34.2257 20.576L34.77 19.1782L32.962 18.4742L32.4177 19.872ZM34.2257 20.576L35.7257 20.576L35.7257 18.576L34.2257 18.576L32.7257 18.576L32.7257 20.576L34.2257 20.576ZM34.2257 18.576L34.2257 20.076L35.5058 20.076L35.5058 18.576L35.5058 17.076L34.2257 17.076L34.2257 18.576ZM35.5058 18.576L34.0058 18.576L34.0058 20.576L35.5058 20.576L37.0058 20.576L37.0058 18.576L35.5058 18.576ZM38.0534 21.728L38.0534 20.228C37.2249 20.228 36.5534 20.8996 36.5534 21.728L38.0534 21.728ZM40.2134 21.728L41.7134 21.728C41.7134 20.8996 41.0418 20.228 40.2134 20.228L40.2134 21.728ZM40.2134 22.88L38.7134 22.88C38.7134 23.7084 39.3849 24.38 40.2134 24.38L40.2134 22.88ZM40.2614 22.88L40.2614 24.38C40.7883 24.38 41.2765 24.1036 41.5476 23.6517L40.2614 22.88ZM41.3814 21.84L42.014 23.2001C42.0226 23.1961 42.0311 23.192 42.0396 23.1879L41.3814 21.84ZM44.2774 21.76L43.6682 23.1307C43.6833 23.1374 43.6985 23.1439 43.7138 23.1501L44.2774 21.76ZM45.2054 22.448L44.0054 23.348C44.0106 23.355 44.016 23.362 44.0213 23.3689L45.2054 22.448ZM45.6694 23.52L44.1985 23.8142C44.2014 23.8286 44.2045 23.843 44.2078 23.8573L45.6694 23.52ZM45.8134 30L45.8134 31.5C46.6418 31.5 47.3134 30.8284 47.3134 30L45.8134 30ZM43.5414 30L42.0414 30C42.0414 30.8284 42.7129 31.5 43.5414 31.5L43.5414 30ZM43.2214 23.808L41.9494 24.603C41.9532 24.6091 41.957 24.6152 41.9609 24.6212L43.2214 23.808ZM40.7414 23.856L41.9329 24.7672C41.9371 24.7616 41.9413 24.7561 41.9455 24.7505L40.7414 23.856ZM40.3254 30L40.3254 31.5C41.1538 31.5 41.8254 30.8284 41.8254 30L40.3254 30ZM38.0534 30L36.5534 30C36.5534 30.8284 37.2249 31.5 38.0534 31.5L38.0534 30ZM38.0534 21.728L38.0534 23.228L40.2134 23.228L40.2134 21.728L40.2134 20.228L38.0534 20.228L38.0534 21.728ZM40.2134 21.728L38.7134 21.728L38.7134 22.88L40.2134 22.88L41.7134 22.88L41.7134 21.728L40.2134 21.728ZM40.2134 22.88L40.2134 24.38L40.2614 24.38L40.2614 22.88L40.2614 21.38L40.2134 21.38L40.2134 22.88ZM40.2614 22.88L41.5476 23.6517C41.6985 23.4002 41.8558 23.2737 42.014 23.2001L41.3814 21.84L40.7488 20.4799C39.9897 20.833 39.4002 21.3998 38.9751 22.1083L40.2614 22.88ZM41.3814 21.84L42.0396 23.1879C42.3066 23.0575 42.5519 23.004 42.7894 23.004L42.7894 21.504L42.7894 20.004C42.0669 20.004 41.3735 20.1745 40.7231 20.4921L41.3814 21.84ZM42.7894 21.504L42.7894 23.004C43.2739 23.004 43.5417 23.0745 43.6682 23.1307L44.2774 21.76L44.8866 20.3893C44.245 20.1042 43.5208 20.004 42.7894 20.004L42.7894 21.504ZM44.2774 21.76L43.7138 23.1501C43.892 23.2224 43.967 23.2969 44.0054 23.348L45.2054 22.448L46.4054 21.548C45.9957 21.0018 45.4521 20.6176 44.8409 20.3699L44.2774 21.76ZM45.2054 22.448L44.0213 23.3689C44.0774 23.4409 44.1501 23.5722 44.1985 23.8142L45.6694 23.52L47.1402 23.2258C47.018 22.6144 46.7814 22.0311 46.3894 21.5271L45.2054 22.448ZM45.6694 23.52L44.2078 23.8573C44.2738 24.1434 44.3134 24.4918 44.3134 24.912L45.8134 24.912L47.3134 24.912C47.3134 24.3082 47.2569 23.7286 47.131 23.1827L45.6694 23.52ZM45.8134 24.912L44.3134 24.912L44.3134 30L45.8134 30L47.3134 30L47.3134 24.912L45.8134 24.912ZM45.8134 30L45.8134 28.5L43.5414 28.5L43.5414 30L43.5414 31.5L45.8134 31.5L45.8134 30ZM43.5414 30L45.0414 30L45.0414 25.328L43.5414 25.328L42.0414 25.328L42.0414 30L43.5414 30ZM43.5414 25.328L45.0414 25.328C45.0414 24.5435 44.9288 23.6876 44.4818 22.9948L43.2214 23.808L41.9609 24.6212C41.9424 24.5924 41.9667 24.6174 41.9936 24.745C42.02 24.8705 42.0414 25.0598 42.0414 25.328L43.5414 25.328ZM43.2214 23.808L44.4934 23.013C43.9133 22.0849 42.9437 21.796 42.0854 21.796L42.0854 23.296L42.0854 24.796C42.2078 24.796 42.2156 24.8161 42.161 24.7915C42.1316 24.7782 42.0914 24.7551 42.0491 24.7185C42.0066 24.6817 41.9732 24.6411 41.9494 24.603L43.2214 23.808ZM42.0854 23.296L42.0854 21.796C41.1626 21.796 40.1858 22.0885 39.5373 22.9615L40.7414 23.856L41.9455 24.7505C41.9341 24.7658 41.9178 24.7831 41.898 24.7983C41.8786 24.8133 41.8645 24.8197 41.8623 24.8206C41.8608 24.8212 41.9219 24.796 42.0854 24.796L42.0854 23.296ZM40.7414 23.856L39.5498 22.9448C38.9631 23.7121 38.8254 24.7347 38.8254 25.664L40.3254 25.664L41.8254 25.664C41.8254 25.3181 41.8545 25.0758 41.8912 24.9163C41.9286 24.7538 41.9618 24.7294 41.9329 24.7672L40.7414 23.856ZM40.3254 25.664L38.8254 25.664L38.8254 30L40.3254 30L41.8254 30L41.8254 25.664L40.3254 25.664ZM40.3254 30L40.3254 28.5L38.0534 28.5L38.0534 30L38.0534 31.5L40.3254 31.5L40.3254 30ZM38.0534 30L39.5534 30L39.5534 21.728L38.0534 21.728L36.5534 21.728L36.5534 30L38.0534 30ZM52.3538 24.864L50.8828 25.1582L50.8849 25.1679L52.3538 24.864ZM52.0178 24.032L50.7365 24.8119C50.7499 24.834 50.7639 24.8557 50.7784 24.877L52.0178 24.032ZM49.5538 23.44L50.3096 24.7357L50.3096 24.7357L49.5538 23.44ZM48.9298 24.032L47.6733 23.2126C47.6648 23.2256 47.6565 23.2388 47.6485 23.2521L48.9298 24.032ZM48.5938 24.88L47.133 24.5392C47.1301 24.5514 47.1274 24.5637 47.1249 24.5761L48.5938 24.88ZM48.9618 27.68L47.6898 28.475C47.7028 28.4959 47.7163 28.5164 47.7304 28.5366L48.9618 27.68ZM49.5858 28.288L48.7663 29.5444C48.7872 29.558 48.8084 29.5711 48.8299 29.5837L49.5858 28.288ZM51.4258 28.288L50.6699 26.9923C50.6619 26.997 50.6538 27.0018 50.6458 27.0067L51.4258 28.288ZM52.0338 27.696L53.315 28.4759C53.3199 28.4679 53.3247 28.4599 53.3294 28.4518L52.0338 27.696ZM52.4818 28.944L53.9818 28.944C53.9818 28.1156 53.3102 27.444 52.4818 27.444L52.4818 28.944ZM52.4498 28.944L52.4498 27.444C51.921 27.444 51.4313 27.7224 51.1608 28.1768L52.4498 28.944ZM51.3938 29.92L52.0093 31.2879C52.0144 31.2856 52.0194 31.2833 52.0244 31.281L51.3938 29.92ZM48.3058 29.856L47.6109 31.1853C47.6189 31.1895 47.6269 31.1936 47.6349 31.1976L48.3058 29.856ZM47.1378 28.88L45.9193 29.7548C45.9278 29.7667 45.9365 29.7784 45.9453 29.79L47.1378 28.88ZM46.4498 27.456L45.0053 27.8604C45.0078 27.8693 45.0104 27.8782 45.013 27.887L46.4498 27.456ZM46.4498 24.192L45.0155 23.7529C45.0135 23.7593 45.0116 23.7656 45.0098 23.772L46.4498 24.192ZM47.1378 22.816L45.9572 21.8907C45.9519 21.8974 45.9468 21.9041 45.9416 21.9108L47.1378 22.816ZM48.2898 21.872L48.973 23.2074C48.9811 23.2032 48.9892 23.199 48.9972 23.1947L48.2898 21.872ZM51.2818 21.824L50.6241 23.1722C50.6372 23.1785 50.6503 23.1847 50.6635 23.1907L51.2818 21.824ZM52.3378 22.736L51.0695 23.537C51.3443 23.9721 51.8231 24.236 52.3378 24.236L52.3378 22.736ZM52.3698 22.736L52.3698 24.236C53.1982 24.236 53.8698 23.5644 53.8698 22.736L52.3698 22.736ZM52.3698 18.576L52.3698 17.076C51.5413 17.076 50.8698 17.7476 50.8698 18.576L52.3698 18.576ZM54.6418 18.576L56.1418 18.576C56.1418 17.7476 55.4702 17.076 54.6418 17.076L54.6418 18.576ZM54.6418 30L54.6418 31.5C55.4702 31.5 56.1418 30.8284 56.1418 30L54.6418 30ZM52.4818 30L50.9818 30C50.9818 30.8284 51.6533 31.5 52.4818 31.5L52.4818 30ZM52.4498 25.84L53.9498 25.84C53.9498 25.4047 53.9089 24.9771 53.8226 24.5601L52.3538 24.864L50.8849 25.1679C50.9266 25.3696 50.9498 25.5926 50.9498 25.84L52.4498 25.84ZM52.3538 24.864L53.8246 24.5698C53.727 24.0817 53.5461 23.6108 53.2571 23.187L52.0178 24.032L50.7784 24.877C50.8094 24.9225 50.8525 25.0063 50.8829 25.1582L52.3538 24.864ZM52.0178 24.032L53.299 23.2521C53.0251 22.802 52.6558 22.4327 52.2057 22.1587L51.4258 23.44L50.6458 24.7213C50.6864 24.746 50.7118 24.7714 50.7365 24.8119L52.0178 24.032ZM51.4258 23.44L52.2057 22.1587C51.6647 21.8294 51.0654 21.716 50.4978 21.716L50.4978 23.216L50.4978 24.716C50.6768 24.716 50.6961 24.7519 50.6458 24.7213L51.4258 23.44ZM50.4978 23.216L50.4978 21.716C49.9269 21.716 49.3357 21.8306 48.7979 22.1443L49.5538 23.44L50.3096 24.7357C50.2838 24.7507 50.322 24.716 50.4978 24.716L50.4978 23.216ZM49.5538 23.44L48.7979 22.1443C48.3428 22.4098 47.9624 22.7693 47.6733 23.2126L48.9298 24.032L50.1862 24.8514C50.2171 24.804 50.2527 24.7688 50.3096 24.7357L49.5538 23.44ZM48.9298 24.032L47.6485 23.2521C47.4054 23.6513 47.2387 24.0861 47.133 24.5392L48.5938 24.88L50.0545 25.2208C50.0981 25.0339 50.1554 24.9033 50.211 24.8119L48.9298 24.032ZM48.5938 24.88L47.1249 24.5761C47.0386 24.9931 46.9978 25.4207 46.9978 25.856L48.4978 25.856L49.9978 25.856C49.9978 25.6086 50.0209 25.3856 50.0626 25.1839L48.5938 24.88ZM48.4978 25.856L46.9978 25.856C46.9978 26.2938 47.049 26.7281 47.149 27.1568L48.6098 26.816L50.0705 26.4752C50.0212 26.2639 49.9978 26.0582 49.9978 25.856L48.4978 25.856ZM48.6098 26.816L47.149 27.1568C47.2578 27.6234 47.4349 28.0672 47.6898 28.475L48.9618 27.68L50.2337 26.885C50.1686 26.7808 50.111 26.6486 50.0705 26.4752L48.6098 26.816ZM48.9618 27.68L47.7304 28.5366C48.0091 28.9372 48.3559 29.2767 48.7663 29.5444L49.5858 28.288L50.4052 27.0316C50.3249 26.9793 50.2558 26.9135 50.1931 26.8234L48.9618 27.68ZM49.5858 28.288L48.8299 29.5837C49.3551 29.89 49.9303 30.012 50.4978 30.012L50.4978 28.512L50.4978 27.012C50.4276 27.012 50.385 27.0046 50.3635 26.9993C50.3434 26.9943 50.3385 26.9905 50.3416 26.9923L49.5858 28.288ZM50.4978 28.512L50.4978 30.012C51.0654 30.012 51.6647 29.8986 52.2057 29.5693L51.4258 28.288L50.6458 27.0067C50.6961 26.9761 50.6768 27.012 50.4978 27.012L50.4978 28.512ZM51.4258 28.288L52.1816 29.5837C52.6457 29.3129 53.0319 28.9411 53.315 28.4759L52.0338 27.696L50.7525 26.9161C50.7369 26.9416 50.7178 26.9644 50.6699 26.9923L51.4258 28.288ZM52.0338 27.696L53.3294 28.4518C53.5703 28.0389 53.7314 27.5923 53.8246 27.1262L52.3538 26.832L50.8829 26.5378C50.8481 26.7117 50.7959 26.8411 50.7381 26.9402L52.0338 27.696ZM52.3538 26.832L53.8246 27.1262C53.9089 26.705 53.9498 26.2756 53.9498 25.84L52.4498 25.84L50.9498 25.84C50.9498 26.0871 50.9266 26.319 50.8829 26.5378L52.3538 26.832ZM52.4818 28.944L52.4818 27.444L52.4498 27.444L52.4498 28.944L52.4498 30.444L52.4818 30.444L52.4818 28.944ZM52.4498 28.944L51.1608 28.1768C51.0355 28.3873 50.9036 28.4939 50.7631 28.559L51.3938 29.92L52.0244 31.281C52.7586 30.9408 53.3307 30.3967 53.7387 29.7112L52.4498 28.944ZM51.3938 29.92L50.7782 28.5521C50.574 28.644 50.3038 28.708 49.9378 28.708L49.9378 30.208L49.9378 31.708C50.6597 31.708 51.3601 31.58 52.0093 31.2879L51.3938 29.92ZM49.9378 30.208L49.9378 28.708C49.5105 28.708 49.2034 28.6278 48.9766 28.5144L48.3058 29.856L47.6349 31.1976C48.3467 31.5535 49.1277 31.708 49.9378 31.708L49.9378 30.208ZM48.3058 29.856L49.0006 28.5267C48.7181 28.379 48.5012 28.194 48.3302 27.97L47.1378 28.88L45.9453 29.79C46.393 30.3766 46.9547 30.8424 47.6109 31.1853L48.3058 29.856ZM47.1378 28.88L48.3562 28.0052C48.1625 27.7353 48.003 27.4132 47.8865 27.025L46.4498 27.456L45.013 27.887C45.2165 28.5655 45.5157 29.1927 45.9193 29.7548L47.1378 28.88ZM46.4498 27.456L47.8942 27.0516C47.7832 26.6551 47.7258 26.2368 47.7258 25.792L46.2258 25.792L44.7258 25.792C44.7258 26.4992 44.8177 27.1903 45.0053 27.8604L46.4498 27.456ZM46.2258 25.792L47.7258 25.792C47.7258 25.3738 47.7818 24.9822 47.8898 24.612L46.4498 24.192L45.0098 23.772C44.8191 24.4258 44.7258 25.1009 44.7258 25.792L46.2258 25.792ZM46.4498 24.192L47.8841 24.6311C47.9979 24.259 48.1518 23.9617 48.3339 23.7212L47.1378 22.816L45.9416 21.9108C45.5264 22.4596 45.2216 23.0796 45.0155 23.7529L46.4498 24.192ZM47.1378 22.816L48.3183 23.7413C48.4898 23.5225 48.7024 23.3458 48.973 23.2074L48.2898 21.872L47.6065 20.5366C46.9598 20.8675 46.4044 21.3201 45.9572 21.8907L47.1378 22.816ZM48.2898 21.872L48.9972 23.1947C49.2042 23.084 49.4868 23.004 49.8898 23.004L49.8898 21.504L49.8898 20.004C49.0767 20.004 48.2927 20.1693 47.5823 20.5493L48.2898 21.872ZM49.8898 21.504L49.8898 23.004C50.1545 23.004 50.3934 23.0596 50.6241 23.1722L51.2818 21.824L51.9394 20.4758C51.2955 20.1617 50.6063 20.004 49.8898 20.004L49.8898 21.504ZM51.2818 21.824L50.6635 23.1907C50.8515 23.2757 50.9744 23.3864 51.0695 23.537L52.3378 22.736L53.606 21.935C53.1891 21.2749 52.6081 20.7776 51.9 20.4573L51.2818 21.824ZM52.3378 22.736L52.3378 24.236L52.3698 24.236L52.3698 22.736L52.3698 21.236L52.3378 21.236L52.3378 22.736ZM52.3698 22.736L53.8698 22.736L53.8698 18.576L52.3698 18.576L50.8698 18.576L50.8698 22.736L52.3698 22.736ZM52.3698 18.576L52.3698 20.076L54.6418 20.076L54.6418 18.576L54.6418 17.076L52.3698 17.076L52.3698 18.576ZM54.6418 18.576L53.1418 18.576L53.1418 30L54.6418 30L56.1418 30L56.1418 18.576L54.6418 18.576ZM54.6418 30L54.6418 28.5L52.4818 28.5L52.4818 30L52.4818 31.5L54.6418 31.5L54.6418 30ZM52.4818 30L53.9818 30L53.9818 28.944L52.4818 28.944L50.9818 28.944L50.9818 30L52.4818 30Z" fill="white" mask="url(#path-1-outside-1_344_467)"/>
</svg>
