<svg xmlns="http://www.w3.org/2000/svg" width="81" height="48" fill="none"><path fill="#565656" d="M0 0h80.572v48H0z"/><path fill="#fff" d="M56.71 18.184H54.44v4.16h-.032a2.38 2.38 0 0 0-1.056-.912 3.138 3.138 0 0 0-1.392-.32c-.608 0-1.142.123-1.6.368-.459.235-.843.55-1.153.944l-.108.15c-.246.36-.439.769-.579 1.226a5.687 5.687 0 0 0-.225 1.6l.015.428c.028.424.098.836.21 1.236l-.637.19V24.52c0-.512-.048-.977-.144-1.393-.086-.426-.24-.783-.464-1.07l-.022-.027a5.89 5.89 0 0 1 .47-.729l.02-.025a5.29 5.29 0 0 1 1.77-1.453c.762-.4 1.595-.573 2.447-.573.208 0 .415.014.619.039v-1.105c0-1.028.833-1.861 1.861-1.861h2.271c1.028 0 1.862.833 1.862 1.861v11.424a1.862 1.862 0 0 1-1.862 1.861h-2.16c-.225 0-.44-.043-.64-.116a5.488 5.488 0 0 1-1.904.324 5.57 5.57 0 0 1-2.172-.415l-.292-.134-.03-.015a5.349 5.349 0 0 1-1.598-1.266l-.187-.23-.007-.01h.162v-2.353l.637-.19a4.77 4.77 0 0 0 .688 1.424c.309.405.698.731 1.167.976.47.235 1.014.352 1.632.352.544 0 1.03-.096 1.456-.288.438-.203.79-.528 1.057-.976h.031v1.056h2.16V18.184Zm-4.052 7.264c0-.169-.012-.323-.034-.463l-.024-.136-.002-.013a.627.627 0 0 0-.033-.115l-.016-.033c-.023.052-.05.12-.071.21-.032.168-.05.356-.05.566 0 .174.02.353.063.538.02.083.045.15.07.204.012-.038.027-.081.037-.131.039-.195.06-.403.06-.627Zm1.854.254a4.964 4.964 0 0 1-.09.738l-.055.234a2.682 2.682 0 0 1-.264.63c-.15.245-.352.443-.608.592-.246.15-.555.224-.928.224a1.78 1.78 0 0 1-.912-.224 2.257 2.257 0 0 1-.624-.608 2.738 2.738 0 0 1-.288-.63l-.065-.234a4.26 4.26 0 0 1-.104-.72l-.007-.24c0-.341.032-.667.096-.976.074-.32.186-.603.336-.848.16-.245.368-.442.624-.592.256-.149.57-.224.944-.224.373 0 .682.075.928.224.245.15.442.347.591.592.16.235.272.512.336.832.064.31.097.635.097.976l-.007.254Z"/><path fill="#fff" d="M38.261 21.335c0-1.027.834-1.86 1.862-1.86h2.159c.252 0 .493.05.713.142a4.977 4.977 0 0 1 1.863-.367c.74 0 1.498.1 2.186.394h.001c.014.005.028.01.041.017l.016.006a3.971 3.971 0 0 1 1.64 1.247h.002l.008.011.011.014c.294.385.503.808.648 1.249-.071.075-.14.154-.205.236a4.387 4.387 0 0 0-.687 1.376 5.687 5.687 0 0 0-.225 1.6c0 .576.076 1.13.225 1.664a4.77 4.77 0 0 0 .688 1.424 3.4 3.4 0 0 0 .537.557v.563a1.862 1.862 0 0 1-1.862 1.861H45.61a1.859 1.859 0 0 1-1.608-.928c-.323.554-.92.928-1.608.928h-2.271a1.862 1.862 0 0 1-1.862-1.861v-.531c.59-.434 1.033-1.11 1.33-2.029h-1.33v-1.024h1.474c.01-.075.016-.144.016-.208v-.224c0-.586-.086-1.152-.256-1.696a4.077 4.077 0 0 0-.768-1.424 3.39 3.39 0 0 0-.466-.48v-.657Zm1.862 8.273h2.271v-4.336c0-.842.139-1.445.416-1.808.277-.373.725-.56 1.344-.56.544 0 .923.17 1.136.512.214.33.32.837.32 1.52v4.672h2.272V24.52c0-.512-.048-.977-.144-1.393-.086-.426-.24-.783-.464-1.07a2.125 2.125 0 0 0-.928-.69c-.384-.17-.88-.255-1.488-.255-.48 0-.949.112-1.407.336-.459.213-.833.56-1.12 1.04h-.05v-1.153h-2.158v8.273Z"/><path fill="#fff" d="m31.503 27.345.001-.006.279-.1-.28.106Zm-.202-1.353a1.95 1.95 0 0 0-.592-.657 3.026 3.026 0 0 0-.848-.431c-.066-.023-.133-.041-.2-.063.033-.37.096-.733.19-1.09h1.45c-.042-.511-.176-.933-.4-1.263a2.59 2.59 0 0 0-.335-.429 5.67 5.67 0 0 1 .75-.969 5.892 5.892 0 0 1 1.929-1.347l.012-.005.294-.117a6.279 6.279 0 0 1 2.167-.37c.888 0 1.753.164 2.548.55h.001c.732.351 1.37.84 1.882 1.472.018.02.034.042.05.062h-.076v8.273h.225a4.899 4.899 0 0 1-1.014.991l-.207.14c-1.015.656-2.182.938-3.409.938a6.827 6.827 0 0 1-2.141-.326l-.291-.104-.03-.012a5.608 5.608 0 0 1-1.978-1.341 5.738 5.738 0 0 1-.678-.875c.234-.192.43-.423.589-.691.168-.28.272-.607.314-.983l.28-.105c.202.533.485.992.847 1.376.363.384.806.683 1.328.896.523.203 1.11.304 1.76.304.939 0 1.74-.213 2.4-.64.662-.426 1.152-1.136 1.472-2.128h-2c-.074.256-.277.501-.607.736-.33.224-.726.336-1.185.336-.64 0-1.13-.166-1.471-.497-.341-.33-.528-.863-.56-1.6h5.968c.01-.074.016-.143.016-.207v-.224c0-.513-.065-1.01-.196-1.49l-.06-.206a4.077 4.077 0 0 0-.768-1.424 3.543 3.543 0 0 0-1.265-.992c-.5-.245-1.083-.368-1.744-.368-.629 0-1.205.112-1.727.336a4.03 4.03 0 0 0-1.328.927 3.971 3.971 0 0 0-.865 1.377l-.07.202a4.896 4.896 0 0 0-.233 1.526l.005.237a5.04 5.04 0 0 0 .283 1.523l-.279.1c.014-.125.02-.254.02-.388 0-.384-.073-.704-.223-.96Zm4.354-3.168c.554 0 .965.15 1.232.448.277.299.469.736.575 1.312h-3.695c.01-.16.042-.342.096-.544.064-.203.165-.395.303-.576.15-.18.342-.33.577-.448.234-.128.538-.192.912-.192Z"/><path fill="#fff" d="M22.192 23.768c0-.757.142-1.551.564-2.263l.023-.036.146-.219a4.14 4.14 0 0 1 1.328-1.203 5.238 5.238 0 0 1 1.767-.64 8.544 8.544 0 0 1 3.303.01h-.001c.612.123 1.198.34 1.735.668l.215.14c.47.327.86.74 1.169 1.219l.016.025.022.032h-.002c.146.225.267.459.362.7a3.97 3.97 0 0 0-1.041 1.55 4.826 4.826 0 0 0-.303 1.729c0 .64.096 1.226.288 1.76.202.533.485.992.847 1.376.106.112.22.216.34.314a3.917 3.917 0 0 1-.178.34l.001.001c-.316.537-.73.995-1.232 1.357l-.22.15a5.24 5.24 0 0 1-1.827.713h.001l-.027.006-.023.005V31.5a8.42 8.42 0 0 1-1.717.177c-.453 0-.902-.034-1.346-.103l-.443-.08a5.737 5.737 0 0 1-1.614-.593l-.214-.126-.021-.013a4.722 4.722 0 0 1-1.298-1.226l-.146-.213-.033-.054c-.423-.705-.601-1.494-.632-2.277-.02-.506.168-.998.519-1.363.031-.032.065-.062.099-.092a3.692 3.692 0 0 1-.427-1.769Zm1.875.262c.028.252.098.474.21.666l.12.177c.13.17.288.319.472.447.245.16.522.294.832.4.32.096.645.181.976.256.81.17 1.44.341 1.888.512l.161.068c.351.168.527.402.527.7l-.01.146a.815.815 0 0 1-.134.366 1.195 1.195 0 0 1-.368.32 1.958 1.958 0 0 1-.48.176 2.699 2.699 0 0 1-1.152-.032 1.794 1.794 0 0 1-.544-.24 1.546 1.546 0 0 1-.4-.432 1.352 1.352 0 0 1-.144-.64h-2.16c.021.554.144 1.019.368 1.392.235.363.528.656.88.88.362.224.774.384 1.232.48a6.854 6.854 0 0 0 2.783 0 3.473 3.473 0 0 0 1.082-.383l.135-.082c.352-.223.635-.517.848-.88.196-.326.306-.718.33-1.175l.006-.2c0-.384-.074-.704-.224-.96a1.948 1.948 0 0 0-.593-.657 3.027 3.027 0 0 0-.847-.431 9.098 9.098 0 0 0-.96-.272c-.32-.074-.635-.144-.945-.208a9.491 9.491 0 0 1-.832-.208 2.019 2.019 0 0 1-.455-.228l-.12-.092a.624.624 0 0 1-.224-.496c0-.17.042-.304.128-.4a.823.823 0 0 1 .304-.24c.128-.053.267-.086.416-.096.15-.022.288-.032.416-.032.405 0 .757.08 1.056.24.299.149.464.442.496.88h2.16c-.042-.512-.176-.934-.4-1.264a2.486 2.486 0 0 0-.816-.816 3.454 3.454 0 0 0-1.136-.432 6.68 6.68 0 0 0-2.607 0 3.376 3.376 0 0 0-1.153.416 2.298 2.298 0 0 0-.832.8c-.203.34-.304.779-.304 1.312l.014.262Z"/></svg>