<svg width="76" height="48" viewBox="0 0 76 48" fill="none" xmlns="http://www.w3.org/2000/svg">
<path d="M52.585 18.4004L49.9443 18.4004L49.9443 22.5596C49.4193 21.675 48.3745 21.2543 47.4814 21.2051L47.3047 21.2002C45.4162 21.2002 44.0003 22.4113 43.6162 24.501C43.5841 23.4499 43.392 22.6322 42.9512 22.0732C43.0971 21.8387 43.2609 21.6172 43.4414 21.4092C44.4175 20.2845 45.7914 19.7002 47.3047 19.7002C47.6562 19.7002 48.0454 19.744 48.4443 19.8389L48.4443 18.4004C48.4443 17.5721 49.1161 16.9006 49.9443 16.9004L52.585 16.9004C53.4133 16.9005 54.085 17.572 54.085 18.4004L54.085 30C54.085 30.8284 53.4133 31.4999 52.585 31.5L49.9443 31.5C49.6828 31.4999 49.4367 31.4332 49.2227 31.3154C48.5652 31.5901 47.8838 31.708 47.3047 31.708C45.7922 31.708 44.4236 31.1203 43.4502 30L43.623 30L43.623 26.9258C44.0016 28.9217 45.3237 30.1175 47.0986 30.2031L47.3047 30.208C48.2327 30.208 49.3843 29.7917 49.9443 28.8477L49.9443 30L52.585 30L52.585 18.4004ZM48.5723 25.6963C48.5723 25.0347 48.4117 24.8278 48.3887 24.8018C48.3864 24.7992 48.3577 24.7481 48.1689 24.748C48.0662 24.748 48.0115 24.7778 47.959 24.8398C47.8926 24.9185 47.749 25.1589 47.749 25.6963C47.7491 26.2331 47.892 26.4806 47.9629 26.5654C48.0197 26.6333 48.0754 26.6602 48.1689 26.6602L48.1689 28.1602L47.9736 28.1504C47.0727 28.0566 46.351 27.3066 46.2588 25.9873L46.249 25.6963C46.249 24.0963 47.1129 23.248 48.1689 23.248L48.3613 23.2559C49.3133 23.3361 50.0723 24.0312 50.0723 25.6963L50.0625 26.0166C49.9637 27.5553 49.1438 28.1601 48.1689 28.1602L48.1689 26.6602C48.3469 26.6601 48.3771 26.6122 48.3838 26.6045C48.4114 26.5731 48.5722 26.3586 48.5723 25.6963Z" fill="#8F8F8F"/>
<path d="M39.8809 23.2588C40.941 23.3739 40.9834 24.3322 40.9834 25.4873L40.9834 29.999L43.623 29.999L43.623 26.9248C43.8411 28.0745 44.3726 28.9581 45.123 29.5176L45.123 29.999C45.123 30.8275 44.4515 31.499 43.623 31.499L40.9834 31.499C40.266 31.499 39.6664 30.9953 39.5186 30.3223C39.3706 30.995 38.7728 31.4988 38.0557 31.499L35.415 31.499C34.5867 31.4989 33.915 30.8274 33.915 29.999L33.915 23.5732L35.0088 22.7666L34.0801 21.4707L35.6162 20.9268L35.2236 19.9043C35.2864 19.8963 35.3501 19.8906 35.415 19.8906L38.0557 19.8906C38.3186 19.8907 38.5654 19.9592 38.7803 20.0781C39.3503 19.8412 40.0053 19.6992 40.7275 19.6992C42.1378 19.6993 43.3981 20.1311 44.2168 21.2568C44.4343 21.5559 44.6006 21.8818 44.7295 22.2236C44.1799 22.7795 43.791 23.5488 43.6162 24.5C43.5533 22.4428 42.8755 21.2774 40.9297 21.2031L40.7275 21.1992C39.3675 21.1992 38.4397 21.8873 38.0557 22.5273L38.0557 21.3906L35.415 21.3906L35.415 29.999L38.0557 29.999L38.0557 25.583C38.0557 23.983 38.5193 23.2471 39.6553 23.2471L39.8809 23.2588Z" fill="#8F8F8F"/>
<path d="M33.5359 16.9004C34.1988 16.9004 34.7605 17.3304 34.9588 17.9268C35.1943 17.9139 35.4318 17.9559 35.6512 18.0537C36.0145 18.2158 36.2989 18.5162 36.4412 18.8877L37.0174 20.3916C37.1408 20.7139 37.1474 21.0668 37.0418 21.3916L35.4148 21.3916L35.4148 23.3184L35.0086 22.7676L34.0799 21.4717L35.616 20.9277L35.0398 19.4238L33.5359 20L33.5359 18.4004L31.9207 18.4004L31.9207 20L30.448 19.4238L29.8719 20.9277L31.4246 21.4717L30.4803 22.7998L31.8406 23.7119L32.7527 22.3682L33.7283 23.7119L35.0086 22.7676L35.4148 23.3184L35.4148 24.332L34.6189 24.9189C34.2972 25.1562 33.8938 25.2555 33.4988 25.1943C33.2344 25.1534 32.9893 25.0416 32.7849 24.876C32.3249 25.2496 31.6748 25.323 31.1365 25.0361L31.0047 24.958L29.6453 24.0459C29.5886 24.0079 29.5356 23.9648 29.4851 23.9199L30.7039 23.9199C30.4787 22.6013 29.6064 21.8163 28.4637 21.4404C28.3407 21.1024 28.3418 20.7302 28.4715 20.3916L29.0476 18.8877L29.1072 18.751C29.2627 18.4411 29.5226 18.1931 29.8426 18.0518C30.0507 17.9599 30.2747 17.9194 30.4978 17.9268C30.6961 17.3304 31.2578 16.9004 31.9207 16.9004L33.5359 16.9004Z" fill="#8F8F8F"/>
<path d="M21.1884 23.8242C21.1884 22.35 21.9995 21.2485 23.0614 20.583C24.082 19.9434 25.3644 19.668 26.6239 19.668C27.777 19.668 28.9986 19.8929 30.0311 20.5098L29.872 20.9277L31.0624 21.3447C31.1479 21.4375 31.2298 21.5341 31.3075 21.6348L30.4804 22.7998L31.8407 23.7119L32.1083 23.3174C32.1362 23.4316 32.1621 23.5485 32.1825 23.668C32.2567 24.1035 32.1354 24.55 31.8505 24.8877C31.8003 24.9472 31.7434 24.9995 31.6854 25.0498C32.1735 25.6813 32.3964 26.448 32.3964 27.2959C32.3964 28.8035 31.6679 29.9884 30.5321 30.7324C29.4633 31.4325 28.1024 31.708 26.7362 31.708C25.399 31.708 24.0963 31.4175 23.0419 30.6992C22.0176 30.0015 21.3304 28.9674 21.0741 27.6836L21.0282 27.4238C20.9631 26.9919 21.09 26.5528 21.3749 26.2217C21.4855 26.0932 21.6162 25.9865 21.7597 25.9033C21.3883 25.3067 21.1884 24.6047 21.1884 23.8242ZM22.7011 24.1035C22.8318 25.4617 23.9281 26.2089 25.4882 26.4639L27.0243 26.7197C28.0316 26.8956 28.3678 27.1358 28.3681 27.5195L28.3602 27.6133C28.2845 28.0631 27.6523 28.2881 26.7675 28.2881L26.4384 28.2754C25.6985 28.215 25.1699 27.9281 24.9599 27.2002L22.5116 27.2002C22.7967 29.0901 24.2632 30.0799 26.3173 30.1963L26.7362 30.208C29.0456 30.2079 30.7841 29.2919 30.8905 27.4746L30.8964 27.2959C30.8963 25.776 29.9037 25.1682 27.8397 24.7842L26.2401 24.4961C25.4881 24.3521 25.1835 24.1275 25.1835 23.7275C25.1838 23.2959 25.6481 23.088 26.5595 23.0879C27.3915 23.0879 28.0641 23.2799 28.2401 23.9199L30.704 23.9199C30.389 22.0749 28.8081 21.271 26.9901 21.1777L26.6239 21.168C24.4959 21.168 22.6884 22.1122 22.6884 23.8242L22.7011 24.1035Z" fill="#8F8F8F"/>
<path d="M37.5 42C28.9768 42 20.9485 40.2469 14.8941 37.0657C8.51592 33.706 5 29.065 5 23.9968C5 18.9286 8.51592 14.294 14.8941 10.9343C20.9549 7.75314 28.9831 6 37.5 6C46.0169 6 54.0515 7.75314 60.1059 10.9343C66.4904 14.2876 70 18.9286 70 23.9968C70 29.065 66.4841 33.706 60.1059 37.0593C54.0515 40.2405 46.0232 41.9936 37.5 41.9936V42ZM37.5 8.96441C19.3556 8.96441 7.17047 16.7356 7.17047 23.9968C7.17047 31.258 19.3619 39.0356 37.5063 39.0356C55.6508 39.0356 67.8422 31.258 67.8422 23.9968C67.8422 16.7356 55.6444 8.96441 37.5 8.96441Z" fill="#8F8F8F"/>
</svg>
