<svg xmlns="http://www.w3.org/2000/svg" width="110" height="110" fill="none"><g filter="url(#a)"><circle cx="54.667" cy="54.667" r="34.667" fill="url(#b)" fill-opacity=".1"/></g><path fill="#fff" d="M40.884 30.329c2.59-.901 6.664.129 10.644 2.118 2.184 1.092 5.252 2.305 7.982 4.142-1.307.303-2.808.676-4.572 1.114-5.928 1.472-9.558 2.69-11.763 4.063-5.836 3.633-6.382 7.921-6.698 12.427-.179 2.544.226 5.26 1.66 10.988-4.242-2.53-8.889-5.784-10.486-8.396-1.823-2.983.528-10.489 2.81-15.02 2.284-4.53 6.888-10.984 10.423-11.436Z"/><path fill="#fff" fill-rule="evenodd" d="M68.63 40.996c3.422-.087 4.538.742 6.403 1.818 2.373 1.37 3.415 4.324 4.269 5.863.853 1.54 2.16 5.045 2.988 10.242.544 3.413 1.28 6.4 0 10.668-.487 1.621-2.135 4.266-7.257 6.4-5.536 2.306-11.526 3.413-16.648 3.413s-6.512-.815-8.538-2.133c-2.78-1.811-4.428-4.566-5.14-7.412-1.232-4.919-3.386-13.526-1.532-19.211 1.624-4.974 8.182-6.604 13.12-7.83 2.57-.638 8.62-1.723 12.335-1.818ZM63.82 62.728a4.143 4.143 0 0 0-5.46 2.088 4.114 4.114 0 0 0 2.096 5.44 4.143 4.143 0 0 0 5.46-2.088 4.114 4.114 0 0 0-2.096-5.44Zm-11.098-8.535a4.143 4.143 0 0 0-5.462 2.09 4.114 4.114 0 0 0 2.097 5.439 4.144 4.144 0 0 0 5.462-2.089 4.114 4.114 0 0 0-2.097-5.44Zm25.044-1.433c-1.065-.651-1.886.442-1.834 2.443.052 2.001.958 4.152 2.023 4.804 1.066.651 1.887-.444 1.834-2.445-.052-2-.958-4.15-2.023-4.802Z" clip-rule="evenodd"/><defs><radialGradient id="b" cx="0" cy="0" r="1" gradientTransform="rotate(90 0 54.667) scale(34.6667)" gradientUnits="userSpaceOnUse"><stop stop-color="#313131"/><stop offset="1" stop-color="#979797"/></radialGradient><filter id="a" width="109.333" height="109.333" x="0" y="0" color-interpolation-filters="sRGB" filterUnits="userSpaceOnUse"><feFlood flood-opacity="0" result="BackgroundImageFix"/><feBlend in="SourceGraphic" in2="BackgroundImageFix" result="shape"/><feGaussianBlur result="effect1_foregroundBlur_319_445" stdDeviation="10"/></filter></defs></svg>