<svg width="166" height="92" viewBox="0 0 166 92" fill="none" xmlns="http://www.w3.org/2000/svg">
<path d="M82.9152 92C61.1704 92 40.6885 87.5197 25.2421 79.3901C8.96993 70.8043 0 58.9439 0 45.9919C0 33.0398 8.96993 21.1957 25.2421 12.6099C40.7047 4.48026 61.1866 0 82.9152 0C104.644 0 125.142 4.48026 140.588 12.6099C156.877 21.1794 165.83 33.0398 165.83 45.9919C165.83 58.9439 156.86 70.8043 140.588 79.3738C125.142 87.5035 104.66 91.9837 82.9152 91.9837V92ZM82.9152 7.5757C36.6245 7.5757 5.53739 27.4355 5.53739 45.9919C5.53739 64.5483 36.6407 84.4243 82.9314 84.4243C129.222 84.4243 160.325 64.5483 160.325 45.9919C160.325 27.4355 129.206 7.5757 82.9152 7.5757Z" fill="white"/>
<path d="M104.043 32.1689C104.043 32.1689 107.186 32.6323 108.34 35.7568C109.069 37.7294 108.539 41.5026 105.674 43.5943C102.81 45.6861 101.43 45.0507 95.7279 43.965C95.5422 43.9253 95.3698 43.9121 95.224 43.8856C93.0225 43.3958 90.0386 43.687 88.0228 43.5546C83.6066 43.2501 79.2037 42.6146 74.8803 41.6085C74.0713 41.4231 73.0634 41.0657 71.9892 40.695C74.5488 39.9668 76.233 39.424 77.9305 37.2263C80.8216 33.5061 79.1904 28.3031 79.7607 23.8812C80.2248 20.214 79.2965 19.3931 76.8165 22.041C75.6627 23.2722 70.1458 26.4496 67.4271 31.5864C67.3078 31.3481 67.1752 31.123 66.9895 30.898C63.4486 26.7541 58.4224 30.1433 57.3349 34.4328C56.3535 34.7109 54.7488 34.8168 53.3298 34.1548C53.1839 34.0886 53.038 34.0357 52.8922 33.9959C52.8656 33.9165 52.8391 33.8503 52.7861 33.7841C52.7198 33.7047 52.6535 33.6385 52.5871 33.559C52.428 33.4267 52.2423 33.334 52.0301 33.281C51.8975 33.2545 51.7384 33.2413 51.6058 33.2281C51.5792 33.2281 51.5395 33.2281 51.5129 33.2281C51.4864 33.2281 51.4466 33.2281 51.4201 33.2281C51.2742 33.2281 51.1416 33.2545 50.9957 33.281L50.6907 33.3869C50.5448 33.4531 50.4255 33.5458 50.3326 33.665C50.2531 33.7312 50.2 33.8106 50.1735 33.9033C50.0939 34.0357 50.0541 34.1813 50.0674 34.3269C50.0807 34.4196 50.0939 34.5255 50.1072 34.6182C50.147 34.7109 50.1868 34.7903 50.2398 34.883C50.2663 34.9227 50.3061 34.9492 50.3459 34.9756C49.9613 35.6508 49.8817 36.5776 50.3061 37.65C52.1893 42.3101 56.8442 44.8256 62.8385 45.2625C63.064 45.6861 63.316 46.1098 63.5812 46.5334C63.674 46.6791 63.7801 46.7982 63.8862 46.9174C63.9393 46.9836 63.9791 47.063 64.0454 47.1424C65.1196 48.3737 66.7375 49.1813 67.7454 50.4125C69.0186 51.9615 69.5092 54.3843 69.7214 56.251C69.801 56.9394 70.4376 63.1751 69.244 63.6782C67.1752 64.5652 65.9418 65.5978 67.5598 66.9747C72.0688 70.7876 75.7821 65.2933 78.0631 61.8114C79.8402 59.1107 80.4901 58.5281 83.6994 58.5149C84.1768 58.5149 86.0998 58.4355 86.5772 58.4355C86.4977 59.9712 87.4393 60.8979 89.1235 60.2227C89.3755 60.1168 90.9404 59.5475 91.7096 59.2166C93.0225 59.8256 93.6988 60.6199 93.7519 61.4275C93.6325 61.4937 92.8501 61.7982 92.5981 61.8512C88.9378 62.5396 88.5665 66.2069 92.4788 66.3392C94.7465 66.4187 96.4573 65.7832 98.619 65.5052C99.7728 65.3595 101.086 65.8626 102.2 65.4522C103.645 64.9227 104.812 63.4266 104.269 61.8114C104.109 61.3348 103.897 60.8847 103.658 60.4346C104.759 59.349 105.303 57.6146 104.998 55.4566C104.746 53.6429 104.162 51.3922 103.208 49.8035C103.022 49.499 102.836 49.2607 102.651 49.0621C105.144 48.4664 108.061 46.9703 109.679 43.3428C112.942 36.0877 108.008 31.7056 104.017 32.1557L104.043 32.1689Z" fill="white"/>
</svg>
