<svg width="320" height="48" viewBox="0 0 320 48" fill="none" xmlns="http://www.w3.org/2000/svg">
<path d="M182.289 18.5762L179.921 18.5762L179.921 21.6484L179.931 21.7275L178.426 21.7275C178.424 21.7011 178.421 21.6749 178.421 21.6484L178.421 18.5762C178.421 17.7477 179.092 17.0762 179.921 17.0762L182.289 17.0762C183.117 17.0764 183.789 17.7479 183.789 18.5762L183.789 21.6484C183.789 21.7113 183.784 21.7746 183.776 21.8369L183.211 26.2949C183.608 26.5648 183.868 27.02 183.868 27.5361L183.868 30C183.868 30.8284 183.197 31.5 182.368 31.5L179.856 31.5C179.028 31.4999 178.356 30.8284 178.356 30L178.356 27.5361C178.356 27.033 178.604 26.5875 178.984 26.3154L178.799 24.8057L179.934 21.7529L180.528 26.5762L181.665 26.5762L182.289 21.6484L182.289 18.5762ZM182.368 30L182.368 27.5361L179.856 27.5361L179.856 30L182.368 30Z" fill="white"/>
<path d="M174.451 30.1094C174.431 30.3591 174.342 30.5683 174.184 30.7363L174.112 30.8037C173.936 30.9508 173.698 31.0244 173.399 31.0244C173.207 31.0244 173.01 31.0135 172.808 30.9922C172.616 30.9815 172.429 30.9656 172.248 30.9443L172.248 32.8164C172.482 32.8377 172.712 32.8536 172.935 32.8643C173.053 32.8749 173.171 32.8824 173.288 32.8877L173.64 32.8965C174.321 32.8965 174.872 32.786 175.292 32.5654L175.464 32.4639C175.901 32.1759 176.242 31.6961 176.487 31.0244L179.934 21.7529L180.332 24.9863L177.893 31.5469L177.892 31.5459C177.596 32.3542 177.138 33.0994 176.434 33.6162L176.289 33.7168C175.515 34.2268 174.577 34.3965 173.64 34.3965C173.381 34.3965 173.122 34.383 172.864 34.3613L172.864 34.3623C172.618 34.3506 172.367 34.3327 172.112 34.3096C171.34 34.2393 170.748 33.592 170.748 32.8164L170.748 30.9443C170.748 30.5976 170.869 30.2654 171.085 30L171.892 30C171.821 29.8855 171.765 29.7323 171.723 29.541C171.944 29.4583 172.183 29.4259 172.423 29.4541C172.53 29.4667 172.641 29.4742 172.756 29.4824L171.604 26.3955L171.604 23.8564C171.604 23.3659 171.492 22.9655 171.268 22.6563C171.044 22.3469 170.756 22.1062 170.404 21.9355C170.264 21.8677 170.117 21.812 169.966 21.7627C169.959 21.4494 170.048 21.1374 170.231 20.873C170.512 20.4693 170.972 20.2275 171.464 20.2275L173.88 20.2275L174 20.2324C174.597 20.2802 175.113 20.6811 175.304 21.2568L175.743 22.5859L176.163 21.2715L176.204 21.1572C176.433 20.5987 176.98 20.2275 177.592 20.2275L179.921 20.2275L179.921 21.6484L179.931 21.7275L177.592 21.7275L175.784 27.3916L175.752 27.3916L173.88 21.7275L171.464 21.7275L174.359 29.4883L174.401 29.6104C174.437 29.7343 174.456 29.8641 174.456 30L174.451 30.1094Z" fill="white"/>
<path d="M171.604 28.1602L171.604 23.8564C171.604 23.4271 171.518 23.0669 171.347 22.7764L171.269 22.6563C171.073 22.3855 170.827 22.1674 170.533 22.0029L170.404 21.9355C170.14 21.8075 169.855 21.7134 169.549 21.6514L169.236 21.5996C168.916 21.5516 168.599 21.5218 168.285 21.5098L167.973 21.5039C167.503 21.5039 167.045 21.5525 166.597 21.6484C166.149 21.7338 165.743 21.8824 165.38 22.0957L165.247 22.1797C164.944 22.3826 164.69 22.6427 164.484 22.96C164.25 23.312 164.116 23.7498 164.084 24.2725L166.356 24.2725C166.399 23.8245 166.549 23.5035 166.805 23.3115C167.061 23.1198 167.413 23.0244 167.86 23.0244L168.152 23.0361C168.246 23.0441 168.335 23.0563 168.42 23.0723L168.551 23.0938C168.677 23.1217 168.788 23.1684 168.884 23.2324L168.982 23.2949C169.074 23.3649 169.148 23.4564 169.204 23.5684L169.26 23.6885C169.308 23.8163 169.332 23.9679 169.332 24.1436C169.343 24.3782 169.273 24.5605 169.124 24.6885C168.975 24.8056 168.772 24.896 168.517 24.96C168.261 25.0239 167.967 25.0715 167.637 25.1035C167.306 25.1355 166.969 25.1791 166.628 25.2324C166.287 25.2857 165.946 25.3601 165.604 25.4561C165.274 25.5414 164.975 25.6751 164.708 25.8564C164.452 26.0377 164.239 26.2827 164.068 26.5918C163.908 26.8905 163.828 27.2748 163.828 27.7441L163.841 28.0527C163.867 28.3507 163.932 28.6157 164.036 28.8477L162.708 29.4883C162.762 29.4519 162.816 29.4162 162.867 29.376C163.123 29.1628 163.32 28.9069 163.459 28.6084C163.608 28.2991 163.684 27.9414 163.684 27.5361C163.684 26.9601 163.539 26.5124 163.251 26.1924C163.115 26.0361 162.963 25.9045 162.796 25.7959C162.88 25.6508 162.972 25.511 163.073 25.3779C163.046 25.3526 163.017 25.3274 162.991 25.2998C162.926 25.2307 162.87 25.155 162.82 25.0762C162.883 25.0101 162.942 24.9399 162.995 24.8643C163.198 24.5656 163.3 24.213 163.3 23.8076C163.3 23.4453 163.23 23.1308 163.092 22.8643C163.051 22.785 163.003 22.7114 162.952 22.6416C163.029 22.4713 163.119 22.3053 163.225 22.1455L163.364 21.9424C163.701 21.4803 164.122 21.0958 164.62 20.8027L164.818 20.6924C165.219 20.4807 165.645 20.325 166.091 20.2217L166.315 20.1748C166.859 20.0609 167.412 20.0039 167.973 20.0039C168.466 20.0039 168.962 20.0416 169.459 20.1162L169.458 20.1162C170.018 20.1897 170.556 20.3423 171.059 20.5859L171.268 20.6953C171.729 20.9537 172.125 21.2999 172.445 21.7275L171.464 21.7275L173.104 26.124L173.104 28.1602C173.104 28.4764 173.122 28.7713 173.156 29.0459L173.178 29.1826C173.185 29.2179 173.191 29.2431 173.196 29.2598C173.197 29.2639 173.198 29.2672 173.199 29.2695L173.164 29.2051C173.453 29.6675 173.468 30.2506 173.204 30.7275C173.147 30.8301 173.077 30.9222 173 31.0068C172.937 31.0022 172.872 30.999 172.808 30.9922C172.616 30.9815 172.429 30.9656 172.248 30.9443L172.248 31.4541C172.133 31.4823 172.014 31.5 171.893 31.5L169.588 31.5C169.333 31.4999 169.09 31.4341 168.876 31.3184C168.87 31.3208 168.864 31.3248 168.857 31.3271L168.585 31.4189C167.953 31.6113 167.305 31.708 166.645 31.708C166.257 31.708 165.875 31.6722 165.503 31.5967L165.134 31.5078C164.683 31.3809 164.258 31.1851 163.875 30.9131L163.713 30.792C163.271 30.4421 162.93 30.0041 162.687 29.5029C162.695 29.4983 162.701 29.493 162.708 29.4883L164.036 28.8477C164.185 29.157 164.389 29.4135 164.645 29.6162C164.9 29.8188 165.199 29.9685 165.54 30.0645C165.796 30.1365 166.067 30.1812 166.354 30.1992L166.645 30.208C167.156 30.208 167.658 30.1337 168.148 29.9844C168.639 29.835 169.066 29.5735 169.429 29.2002C169.439 29.3388 169.455 29.4776 169.477 29.6162C169.509 29.7441 169.545 29.8721 169.588 30L171.893 30C171.786 29.8294 171.711 29.5736 171.668 29.2324C171.636 28.9763 171.616 28.7107 171.608 28.4365L171.604 28.1602ZM169.332 26.7998C169.332 26.9277 169.316 27.0984 169.284 27.3115C169.263 27.5249 169.194 27.7388 169.076 27.9521C168.959 28.1548 168.778 28.3312 168.532 28.4805C168.287 28.6297 167.94 28.7041 167.492 28.7041C167.402 28.7041 167.312 28.7004 167.225 28.6924L166.964 28.6563C166.793 28.6243 166.644 28.5706 166.517 28.4961C166.389 28.4108 166.287 28.3038 166.212 28.1758C166.137 28.0373 166.101 27.8614 166.101 27.6484C166.101 27.4352 166.137 27.2587 166.212 27.1201C166.268 27.0161 166.336 26.9266 166.416 26.8525L166.5 26.7842C166.628 26.6882 166.773 26.6129 166.933 26.5596C167.092 26.5063 167.263 26.4636 167.444 26.4316C167.626 26.3997 167.807 26.3729 167.988 26.3516C168.17 26.3302 168.346 26.3045 168.517 26.2725C168.687 26.2405 168.842 26.2028 168.98 26.1602C169.119 26.1069 169.236 26.0374 169.332 25.9521L169.332 26.7998ZM168.221 24.1299L168.099 24.1992L168.209 24.1943L168.219 24.1436L168.221 24.1299ZM168.198 24.1436L168.221 24.1299L168.219 24.1436L168.209 24.1943L168.099 24.1992L168.198 24.1436Z" fill="white"/>
<path d="M163.684 27.5361C163.684 26.9601 163.539 26.5124 163.251 26.1924C162.963 25.8618 162.606 25.6369 162.18 25.5195C162.521 25.3703 162.793 25.152 162.995 24.8643C163.173 24.6028 163.273 24.3002 163.295 23.957L163.3 23.8076C163.3 23.4902 163.246 23.2097 163.14 22.9658L163.092 22.8643C162.953 22.5976 162.761 22.3836 162.516 22.2236C162.34 22.0956 162.139 21.9949 161.915 21.9209L161.684 21.8564C161.444 21.7925 161.192 21.7523 160.928 21.7363L160.659 21.7275L160.659 20.2275C161.124 20.2275 161.58 20.2819 162.023 20.3955L162.024 20.3955C162.027 20.3961 162.03 20.3968 162.032 20.3975C162.045 20.4007 162.058 20.4029 162.07 20.4063L162.069 20.4063C162.542 20.522 162.993 20.717 163.397 21.0107L163.396 21.0107C163.834 21.3108 164.179 21.7046 164.422 22.1719L164.516 22.3691C164.568 22.4886 164.611 22.61 164.647 22.7324C164.59 22.8046 164.536 22.8806 164.484 22.96C164.25 23.312 164.116 23.7498 164.084 24.2725L164.77 24.2725C164.725 24.6289 164.625 24.9759 164.465 25.3057C164.593 25.4642 164.702 25.6308 164.792 25.8037C164.764 25.8212 164.735 25.8379 164.708 25.8564C164.452 26.0377 164.239 26.2827 164.068 26.5918C163.908 26.8905 163.828 27.2748 163.828 27.7441C163.828 28.1706 163.898 28.5384 164.036 28.8477C164.182 29.1497 164.379 29.4002 164.627 29.6006C164.45 29.8932 164.234 30.1578 163.982 30.3916L163.828 30.5283L163.799 30.5518C163.437 30.8381 163.034 31.0546 162.604 31.209L162.419 31.2715C161.923 31.4266 161.408 31.5 160.884 31.5L155.907 31.5C155.079 31.4999 154.407 30.8284 154.407 30L154.407 21.7275C154.407 20.8994 155.079 20.2276 155.907 20.2275L160.659 20.2275L160.659 21.7275L155.907 21.7275L155.907 30L160.884 30L161.167 29.9902C161.354 29.9769 161.535 29.9501 161.711 29.9102L161.972 29.8398C162.228 29.7599 162.459 29.6525 162.667 29.5186L162.867 29.376C163.123 29.1628 163.32 28.9069 163.459 28.6084C163.571 28.3764 163.641 28.117 163.669 27.8311L163.684 27.5361ZM160.029 24.1396L160.026 24.1602L160.031 24.1572L160.029 24.1396ZM160.031 24.1572L160.026 24.1602L160.029 24.1396L160.031 24.1572ZM161.323 27.6084C161.307 27.7681 161.267 27.9038 161.203 28.0156C161.118 28.1543 161.006 28.2613 160.867 28.3359L160.76 28.3877C160.648 28.4358 160.524 28.4721 160.388 28.4961L160.111 28.5195C160.018 28.5249 159.923 28.5283 159.827 28.5283L158.147 28.5283L158.147 26.3359L159.731 26.3359C159.934 26.3359 160.131 26.3518 160.323 26.3838C160.515 26.4051 160.686 26.4537 160.835 26.5283C160.984 26.603 161.102 26.7149 161.187 26.8643L161.25 26.9844C161.304 27.1123 161.331 27.2645 161.331 27.4404L161.323 27.6084ZM160.988 24.248C160.974 24.392 160.94 24.5124 160.884 24.6084C160.809 24.7257 160.707 24.8218 160.579 24.8965L160.48 24.9404C160.378 24.9804 160.267 25.0084 160.147 25.0244C159.987 25.0457 159.822 25.0557 159.651 25.0557L158.147 25.0557L158.147 23.168L159.651 23.168C159.822 23.168 159.987 23.1789 160.147 23.2002C160.318 23.2215 160.462 23.2642 160.579 23.3281C160.707 23.3921 160.809 23.4882 160.884 23.6162C160.958 23.7335 160.995 23.8934 160.995 24.0957L160.988 24.248Z" fill="white"/>
<path d="M150.121 30C150.132 30.1707 150.11 30.3361 150.057 30.4961C150.003 30.6667 149.924 30.8164 149.817 30.9443C149.711 31.0828 149.583 31.2 149.434 31.2959C149.295 31.3919 149.145 31.4563 148.985 31.4883L148.985 32.6396C149.327 32.5863 149.647 32.4852 149.945 32.3359C150.255 32.1973 150.521 32.0159 150.745 31.792C150.969 31.568 151.145 31.3015 151.273 30.9922C151.412 30.6935 151.481 30.3627 151.481 30L151.481 27.5361L148.969 27.5361L148.969 30L150.121 30ZM152.981 30C152.981 30.5585 152.873 31.1081 152.634 31.624L152.633 31.623C152.435 32.081 152.162 32.4964 151.806 32.8525C151.444 33.2144 151.023 33.497 150.559 33.7051L150.558 33.7031C150.133 33.9084 149.685 34.049 149.217 34.1221C148.784 34.1897 148.343 34.0643 148.01 33.7793C147.677 33.4943 147.485 33.0779 147.485 32.6396L147.485 31.4883C147.485 31.2246 147.553 30.9737 147.675 30.7559C147.545 30.5338 147.469 30.2759 147.469 30L147.469 27.7061C147.661 27.3853 147.824 27.0409 147.956 26.6719C147.994 26.5638 148.028 26.4542 148.061 26.3438C148.313 26.1513 148.627 26.0362 148.969 26.0361L151.481 26.0361C152.31 26.0363 152.981 26.7078 152.981 27.5361L152.981 30Z" fill="white"/>
<path d="M148.34 24.3359C148.34 23.5985 148.242 22.9019 148.046 22.2461L147.956 21.9678C147.732 21.3239 147.422 20.7538 147.026 20.2568L146.852 20.0479C146.372 19.504 145.78 19.0769 145.076 18.7676C144.47 18.4969 143.793 18.3454 143.048 18.3115L142.724 18.3037C141.839 18.3038 141.05 18.4584 140.356 18.7676L140.101 18.8896C139.517 19.186 139.016 19.572 138.596 20.0479L138.421 20.2568C138.026 20.7537 137.716 21.324 137.492 21.9678L137.402 22.2461C137.206 22.9019 137.108 23.5985 137.108 24.3359L137.114 24.6455C137.142 25.3618 137.268 26.0372 137.492 26.6719C137.748 27.3865 138.116 28.0107 138.596 28.5439C139.076 29.0773 139.663 29.4983 140.356 29.8076C140.963 30.0689 141.643 30.2164 142.396 30.249L142.724 30.2559C143.489 30.2559 144.185 30.1417 144.812 29.9131L145.076 29.8076C145.692 29.5369 146.222 29.1805 146.667 28.7383L146.852 28.5439C147.272 28.0773 147.606 27.5411 147.854 26.9355L147.956 26.6719C148.18 26.0372 148.306 25.3618 148.334 24.6455L148.34 24.3359ZM144.328 24.3359C144.328 24.0487 144.303 23.7728 144.254 23.5068L144.197 23.2441L144.189 23.2129C144.137 22.9836 144.064 22.7906 143.976 22.627L143.882 22.4727C143.878 22.4671 143.874 22.4616 143.87 22.4561C143.789 22.3323 143.694 22.2313 143.576 22.1484L143.451 22.0713L143.424 22.0566C143.304 21.9886 143.092 21.916 142.724 21.916C142.448 21.9161 142.26 21.9569 142.133 22.0059L142.024 22.0566L141.997 22.0713C141.864 22.1432 141.756 22.231 141.664 22.3398L141.577 22.4561C141.574 22.4615 141.57 22.4672 141.566 22.4727C141.433 22.6704 141.321 22.9142 141.242 23.2197C141.162 23.5734 141.12 23.9444 141.12 24.3359C141.12 24.6952 141.16 25.0423 141.236 25.3799C141.313 25.6661 141.424 25.909 141.566 26.1191L141.656 26.2373C141.751 26.3474 141.867 26.4423 142.012 26.5264C142.14 26.5921 142.358 26.6601 142.724 26.6602L142.724 28.1602L142.516 28.1553C142.108 28.1352 141.748 28.0551 141.436 27.915L141.284 27.8398C140.939 27.6439 140.651 27.3948 140.42 27.0928L140.324 26.96C140.079 26.5973 139.898 26.1921 139.78 25.7441C139.7 25.4002 139.65 25.0502 139.63 24.6943L139.62 24.3359C139.62 23.8346 139.674 23.3492 139.78 22.8799C139.883 22.4692 140.035 22.0995 140.235 21.7705L140.324 21.6318C140.539 21.3053 140.811 21.0401 141.14 20.8359L141.284 20.752C141.679 20.5281 142.159 20.4161 142.724 20.416L142.932 20.4209C143.408 20.4454 143.819 20.5559 144.164 20.752C144.559 20.9653 144.879 21.2586 145.124 21.6318C145.369 21.9945 145.546 22.4106 145.652 22.8799C145.77 23.3492 145.828 23.8346 145.828 24.3359L145.817 24.6943C145.795 25.0502 145.74 25.4002 145.652 25.7441L145.559 26.0723C145.453 26.3921 145.308 26.6881 145.124 26.96L145.028 27.0928C144.797 27.3949 144.509 27.6439 144.164 27.8398L144.012 27.915C143.648 28.0783 143.218 28.1602 142.724 28.1602L142.724 26.6602C143.089 26.6602 143.308 26.592 143.436 26.5264C143.63 26.4136 143.773 26.2799 143.882 26.1191L143.979 25.96C144.071 25.7936 144.142 25.6074 144.192 25.3965L144.199 25.3721L144.255 25.1191C144.303 24.8639 144.328 24.6033 144.328 24.3359ZM149.84 24.3359C149.84 25.324 149.687 26.2727 149.37 27.1709L149.368 27.1777C149.325 27.299 149.277 27.4183 149.229 27.5361L148.969 27.5361L148.969 28.0947C148.749 28.5184 148.491 28.9163 148.191 29.2852L147.967 29.5479C147.335 30.2503 146.564 30.793 145.68 31.1816L145.67 31.1855C144.762 31.5767 143.77 31.7559 142.724 31.7559C141.801 31.7558 140.922 31.6192 140.107 31.3223L139.763 31.1855C139.757 31.183 139.751 31.1803 139.745 31.1777C138.981 30.8366 138.301 30.3788 137.723 29.8018L137.481 29.5479C136.864 28.8613 136.398 28.0652 136.08 27.1777L136.077 27.1709C135.76 26.2727 135.608 25.3239 135.608 24.3359C135.608 23.3393 135.76 22.3823 136.075 21.4756C136.39 20.5694 136.854 19.7562 137.472 19.0557L137.713 18.7959C138.293 18.2073 138.975 17.7421 139.745 17.3984L140.092 17.2559C140.911 16.9467 141.795 16.8037 142.724 16.8037C143.774 16.8037 144.768 16.9899 145.679 17.3945L145.68 17.3945C146.571 17.7861 147.344 18.3387 147.977 19.0557L148.201 19.3232C148.708 19.9606 149.097 20.6826 149.373 21.4756C149.688 22.3823 149.84 23.3393 149.84 24.3359Z" fill="white"/>
</svg>
