<svg width="97" height="48" viewBox="0 0 97 48" fill="none" xmlns="http://www.w3.org/2000/svg">
<path d="M49.8271 27.1523L46.8516 27.1523L46.8516 30L49.8271 30L49.8271 27.1523ZM51.3271 30C51.3271 30.8284 50.6556 31.5 49.8271 31.5L46.8516 31.5C46.0749 31.5 45.4352 30.9097 45.3584 30.1533L45.3516 30L46.5918 30L46.5918 27.1523L45.3516 27.1523C45.3516 26.3239 46.0231 25.6523 46.8516 25.6523L49.8271 25.6523C50.6556 25.6524 51.3271 26.3239 51.3271 27.1523L51.3271 30Z" fill="white"/>
<path d="M46.5918 27.1523L43.6152 27.1523L43.6152 30L46.5918 30L46.5918 27.1523ZM46.8516 30L48.0918 30C48.0918 30.8283 47.4201 31.4998 46.5918 31.5L43.6152 31.5C42.8387 31.4999 42.1998 30.9096 42.123 30.1533L42.1152 30L43.3555 30L43.3555 27.1523L42.1152 27.1523C42.1152 26.324 42.7869 25.6525 43.6152 25.6523L46.5918 25.6523C47.4201 25.6525 48.0918 26.324 48.0918 27.1523L46.8516 27.1523L46.8516 30Z" fill="white"/>
<path d="M43.3555 27.1523L40.3799 27.1523L40.3799 29.7109L38.8799 27.3174L38.8799 27.1523C38.8799 26.3239 39.5515 25.6523 40.3799 25.6523L43.3555 25.6523C44.1839 25.6523 44.8555 26.3239 44.8555 27.1523L43.6152 27.1523L43.6152 30L44.8555 30C44.8555 30.8284 44.1839 31.5 43.3555 31.5L40.3799 31.5C39.5515 31.5 38.8799 30.8284 38.8799 30L43.3555 30L43.3555 27.1523Z" fill="white"/>
<path d="M34.2881 18.4004L31.6484 18.4004L31.6484 30L34.2881 30L34.2881 27.8398L35.4404 26.6084L37.4727 30L42.0576 30C42.0576 30.2498 41.9984 30.5002 41.873 30.7266C41.6089 31.2038 41.1061 31.4999 40.5605 31.5L37.4727 31.5C36.9454 31.5 36.4565 31.2228 36.1855 30.7705L35.7822 30.0986C35.7313 30.881 35.0833 31.5 34.2881 31.5L31.6484 31.5C30.82 31.5 30.1484 30.8284 30.1484 30L30.1484 29.1211C31.0003 28.3754 31.5517 27.2347 31.5518 25.6641C31.5518 24.0933 31.0004 22.9565 30.1484 22.2148L30.1484 18.4004C30.1484 17.572 30.82 16.9004 31.6484 16.9004L34.2881 16.9004C35.1165 16.9004 35.7881 17.572 35.7881 18.4004L35.7881 20.7061L36.0596 20.3994L36.1719 20.2852C36.4469 20.0335 36.8079 19.8916 37.1846 19.8916L40.3047 19.8916C40.9017 19.8917 41.4416 20.2465 41.6797 20.7939C41.9178 21.3415 41.8084 21.9783 41.4014 22.415L39.1152 24.8672L40.5459 27.1523L40.3799 27.1523L40.3799 29.7109L37.2324 24.6885L40.3047 21.3916L37.1846 21.3916L34.2881 24.6719L34.2881 18.4004Z" fill="white"/>
<path d="M31.5518 25.665C31.5518 22.6425 29.5099 21.2262 27.2148 21.1406L26.9922 21.1367C24.6082 21.1367 22.4316 22.545 22.4316 25.665L22.4385 25.9521C22.564 28.7784 24.5483 30.1215 26.7695 30.2051L26.9922 30.209C29.3017 30.2089 31.4162 28.8724 31.5459 25.9521L31.5518 25.665ZM27.3643 25.665C27.3643 24.9478 27.1997 24.7355 27.1846 24.7178C27.18 24.7125 27.1804 24.7118 27.1709 24.708C27.1536 24.7013 27.0996 24.6846 26.9922 24.6846C26.8837 24.6846 26.8292 24.7014 26.8125 24.708C26.803 24.7118 26.8044 24.7125 26.7998 24.7178C26.7857 24.7342 26.6201 24.9452 26.6201 25.665C26.6201 26.3765 26.7806 26.6006 26.8027 26.627C26.81 26.6357 26.8105 26.6349 26.8174 26.6377C26.8312 26.6434 26.8831 26.6611 26.9922 26.6611L26.9922 28.1611L26.7939 28.1523C25.8878 28.0755 25.2146 27.4518 25.1289 25.9912L25.1201 25.665C25.1201 23.825 25.9522 23.1846 26.9922 23.1846L27.1846 23.1924C28.1328 23.2695 28.8643 23.9401 28.8643 25.665L28.8545 25.9912C28.7626 27.5562 27.997 28.1611 26.9922 28.1611L26.9922 26.6611C27.1013 26.6611 27.1533 26.6433 27.167 26.6377C27.1735 26.635 27.1737 26.6353 27.1807 26.627C27.2028 26.6006 27.3642 26.3765 27.3643 25.665ZM31.6484 29.7344C31.4965 29.9091 31.3351 30.0753 31.1611 30.2295C29.9891 31.2679 28.4686 31.7089 26.9922 31.709C25.5157 31.709 23.9953 31.2679 22.8232 30.2295C21.6218 29.165 20.9317 27.6004 20.9316 25.665C20.9316 23.7291 21.6221 22.1665 22.8262 21.1055C23.9996 20.0714 25.5198 19.6367 26.9922 19.6367C28.4645 19.6368 29.9848 20.0714 31.1582 21.1055C31.3331 21.2596 31.4958 21.4257 31.6484 21.6006L31.6484 29.7344Z" fill="white"/>
<path d="M68.8469 17.4968C71.0505 17.343 73.0401 20.1209 73.2906 23.7017C73.541 27.2827 71.9572 30.3112 69.7535 30.4654C67.5498 30.6195 65.5602 27.8406 65.3098 24.2595C65.0595 20.6786 66.6433 17.6509 68.8469 17.4968ZM69.1223 19.1139C67.674 19.1774 66.6004 21.5352 66.7131 24.1177C66.8259 26.7004 68.1106 29.1682 69.5589 29.1049C71.0072 29.0415 72.0715 26.4714 71.9587 23.8888C71.8459 21.3061 70.5706 19.0507 69.1223 19.1139Z" fill="white"/>
<path d="M72.3744 22.9796C72.4178 23.8069 71.7823 24.5127 70.955 24.5561C70.1277 24.5994 69.4219 23.9639 69.3786 23.1366C69.3352 22.3093 69.9707 21.6035 70.798 21.5602C71.6253 21.5168 72.3311 22.1523 72.3744 22.9796Z" fill="white"/>
<path d="M61.253 17.4973C63.4567 17.6514 65.0402 20.6791 64.7898 24.2602C64.5393 27.841 62.5504 30.6186 60.3468 30.4649C58.1431 30.3108 56.5596 27.2831 56.81 23.7019C57.0605 20.121 59.0493 17.3434 61.253 17.4973ZM61.1443 19.1363C59.6968 19.0609 58.4024 21.3044 58.267 23.8856C58.1317 26.4672 59.1736 29.0468 60.6213 29.1228C62.069 29.1987 63.3747 26.7423 63.5101 24.1607C63.6454 21.5791 62.592 19.2121 61.1443 19.1363Z" fill="white"/>
<path d="M64.2174 23.1374C64.1741 23.9647 63.4683 24.6002 62.641 24.5568C61.8137 24.5135 61.1782 23.8077 61.2215 22.9804C61.2649 22.1531 61.9707 21.5176 62.798 21.5609C63.6253 21.6043 64.2608 22.3101 64.2174 23.1374Z" fill="white"/>
</svg>
