<svg width="65" height="48" viewBox="0 0 65 48" fill="none" xmlns="http://www.w3.org/2000/svg">
<path d="M36.6289 20.2275C37.2992 20.2275 37.8663 20.6678 38.0586 21.2744L38.5547 20.7246L38.667 20.6123C38.9408 20.3663 39.2971 20.2276 39.6689 20.2275L42.3408 20.2275C42.9401 20.2275 43.4819 20.5852 43.7187 21.1357C43.9406 21.6518 43.8551 22.2452 43.5039 22.6758L43.4297 22.7598L40.8965 25.4326L43.9355 29.0322C44.3121 29.4783 44.3953 30.1024 44.1494 30.6318C43.9035 31.1613 43.3728 31.5 42.7891 31.5L40.0371 31.5C39.5974 31.5 39.1795 31.3074 38.8945 30.9727L38.125 30.0684C38.0892 30.865 37.4344 31.5 36.6289 31.5L34.3574 31.5C33.529 31.5 32.8574 30.8284 32.8574 30L32.8574 27.8848C33.0989 27.5145 33.299 27.1104 33.4561 26.6719C33.712 25.9466 33.8398 25.1679 33.8398 24.3359C33.8398 23.4933 33.712 22.7038 33.4561 21.9678C33.3392 21.6318 33.1977 21.3165 33.0342 21.0205C33.287 20.5488 33.7848 20.2275 34.3574 20.2275L36.6289 20.2275ZM34.3574 30L36.6289 30L36.6289 27.0879L37.1094 26.5596L40.0371 30L42.7891 30L38.8848 25.376L42.3408 21.7275L39.6689 21.7275L36.6289 25.1035L36.6289 21.7275L34.3574 21.7275L34.3574 30Z" fill="white"/>
<path d="M29.8291 24.3359C29.8291 24.0487 29.8039 23.7728 29.7549 23.5068L29.6982 23.2441L29.6904 23.2129C29.6383 22.9836 29.5652 22.7906 29.4766 22.627L29.3828 22.4727C29.3791 22.4671 29.3748 22.4616 29.3711 22.4561C29.2898 22.3323 29.1947 22.2313 29.0771 22.1484L28.9521 22.0713L28.9248 22.0566C28.805 21.9886 28.5934 21.916 28.2246 21.916C27.9485 21.9161 27.7609 21.9569 27.6338 22.0059L27.5254 22.0566L27.498 22.0713C27.3651 22.1432 27.2568 22.231 27.165 22.3398L27.0781 22.4561C27.0745 22.4615 27.071 22.4672 27.0674 22.4727C26.9326 22.6719 26.8203 22.9178 26.7412 23.2266C26.6624 23.5782 26.6211 23.947 26.6211 24.3359C26.6211 24.6938 26.6603 25.0397 26.7363 25.376C26.8131 25.6639 26.9246 25.908 27.0674 26.1191L27.1572 26.2373C27.2516 26.3474 27.3678 26.4423 27.5127 26.5264C27.6406 26.5921 27.8585 26.6601 28.2246 26.6602L28.2246 28.1602L28.0166 28.1553C27.6086 28.1352 27.2485 28.0551 26.9365 27.915L26.7852 27.8398C26.4399 27.6439 26.1519 27.3948 25.9209 27.0928L25.8252 26.96C25.5799 26.5973 25.3986 26.1921 25.2812 25.7441C25.2013 25.4002 25.1509 25.0502 25.1309 24.6943L25.1211 24.3359C25.1211 23.8346 25.1746 23.3492 25.2812 22.8799C25.3839 22.4692 25.5356 22.0995 25.7363 21.7705L25.8252 21.6318C26.0398 21.3053 26.3117 21.0401 26.6406 20.8359L26.7852 20.752C27.1797 20.5281 27.6595 20.4161 28.2246 20.416L28.4326 20.4209C28.9088 20.4454 29.3196 20.5559 29.665 20.752C30.0597 20.9653 30.3797 21.2586 30.625 21.6318C30.8703 21.9945 31.0467 22.4106 31.1533 22.8799C31.2706 23.3492 31.3291 23.8346 31.3291 24.3359L31.3184 24.6943C31.2963 25.0502 31.2413 25.4002 31.1533 25.7441L31.0596 26.0723C30.9536 26.3921 30.8089 26.6881 30.625 26.96L30.5293 27.0928C30.2983 27.3949 30.0103 27.6439 29.665 27.8398L29.5127 27.915C29.1487 28.0783 28.7192 28.1602 28.2246 28.1602L28.2246 26.6602C28.5903 26.6602 28.8085 26.592 28.9365 26.5264C29.1312 26.4136 29.274 26.2799 29.3828 26.1191L29.4805 25.96C29.5719 25.7936 29.6431 25.6074 29.6934 25.3965L29.7002 25.3721L29.7559 25.1191C29.8043 24.8639 29.8291 24.6033 29.8291 24.3359ZM34.3584 26.9893L34.3584 26.9941L33.457 26.6719L34.3584 26.9893ZM33.8408 24.3359C33.8408 23.5985 33.7429 22.9019 33.5469 22.2461L33.457 21.9678C33.233 21.3239 32.9228 20.7538 32.5273 20.2568L32.3525 20.0479C31.8726 19.504 31.281 19.0769 30.5771 18.7676C29.9705 18.4969 29.2943 18.3454 28.5488 18.3115L28.2246 18.3037C27.3396 18.3038 26.5505 18.4584 25.8574 18.7676L25.6016 18.8896C25.0184 19.186 24.5166 19.572 24.0967 20.0479L23.9219 20.2568C23.5266 20.7537 23.2171 21.324 22.9932 21.9678L22.9033 22.2461C22.7072 22.9019 22.6094 23.5985 22.6094 24.3359L22.6152 24.6455C22.6432 25.3618 22.7692 26.0372 22.9932 26.6719C23.2491 27.3865 23.6168 28.0107 24.0967 28.5439C24.5767 29.0773 25.1641 29.4983 25.8574 29.8076C26.464 30.0689 27.1439 30.2164 27.8975 30.249L28.2246 30.2559C28.9898 30.2559 29.6861 30.1417 30.3125 29.9131L30.5771 29.8076C31.1932 29.5369 31.7235 29.1805 32.168 28.7383L32.3525 28.5439C32.8325 28.0106 33.201 27.3865 33.457 26.6719L34.3584 26.9941L34.3584 28.2988C34.1639 28.6463 33.9434 28.9763 33.6924 29.2852L33.4678 29.5479C32.8355 30.2503 32.0651 30.793 31.1807 31.1816L31.1709 31.1855C30.2628 31.5767 29.2713 31.7559 28.2246 31.7559C27.3017 31.7558 26.4234 31.6192 25.6084 31.3223L25.2637 31.1855C25.2578 31.183 25.2519 31.1803 25.2461 31.1777C24.4815 30.8366 23.8025 30.3788 23.2236 29.8018L22.9824 29.5479C22.3645 28.8613 21.899 28.0652 21.5811 27.1777L21.5781 27.1709C21.2612 26.2727 21.1094 25.3239 21.1094 24.3359C21.1094 23.3393 21.2608 22.3823 21.5762 21.4756C21.8914 20.5694 22.3545 19.7562 22.9727 19.0557L23.2139 18.7959C23.7935 18.2073 24.4758 17.7421 25.2461 17.3984L25.5928 17.2559C26.4122 16.9467 27.296 16.8037 28.2246 16.8037C29.2748 16.8037 30.2692 16.9899 31.1797 17.3945L31.1807 17.3945C32.0718 17.7861 32.8449 18.3387 33.4775 19.0557L33.7021 19.3232C34.2092 19.9606 34.5982 20.6826 34.874 21.4756C34.903 21.559 34.9288 21.6433 34.9551 21.7275L34.3584 21.7275L34.3584 26.9893L33.457 26.6719C33.681 26.0372 33.807 25.3618 33.835 24.6455L33.8408 24.3359Z" fill="white"/>
</svg>
