<svg xmlns="http://www.w3.org/2000/svg" width="70" height="70" fill="none"><g filter="url(#a)"><circle cx="35" cy="35" r="15" fill="url(#b)" fill-opacity=".1"/></g><path fill="#fff" d="M35.213 24.021c2.274-.367 1.876 4.18 1.45 8.027 2.365-2.876 4.07-5.64 5.917-4.294 1.782 1.298-1.27 3.963-4.12 6.247 3.703-.367 6.862-1.135 6.862 1.496 0 1.984-3.087 1.618-6.904 1.152 2.858 2.351 5.695 4.007 3.805 5.897-1.446 1.446-3.387-1.135-5.787-4.22.345 4.093 1.266 7.675-1.459 7.675-2.08 0-1.577-3.583-1.085-7.881-2.724 3.159-4.598 6.58-6.595 4.583-1.502-1.501 1.468-3.667 4.86-6.35-3.863.324-7.273 1.291-7.637-1.092-.351-2.3 4.058-1.867 7.726-1.437-2.797-2.3-5.579-3.915-4.195-5.783 1.328-1.792 3.894 1.207 6.063 3.954-.332-4.043-1.265-7.592 1.099-7.974Z"/><defs><radialGradient id="b" cx="0" cy="0" r="1" gradientTransform="matrix(0 15 -15 0 35 35)" gradientUnits="userSpaceOnUse"><stop stop-color="#313131"/><stop offset="1" stop-color="#979797"/></radialGradient><filter id="a" width="70" height="70" x="0" y="0" color-interpolation-filters="sRGB" filterUnits="userSpaceOnUse"><feFlood flood-opacity="0" result="BackgroundImageFix"/><feBlend in="SourceGraphic" in2="BackgroundImageFix" result="shape"/><feGaussianBlur result="effect1_foregroundBlur_433_676" stdDeviation="10"/></filter></defs></svg>