<svg width="96" height="96" viewBox="0 0 96 96" fill="none" xmlns="http://www.w3.org/2000/svg">
<g filter="url(#filter0_f_200_341)">
<circle cx="48" cy="48" r="28" fill="#313131" fill-opacity="0.1"/>
</g>
<path d="M45.4922 31.5835C46.4957 32.0452 46.941 33.2375 46.5915 34.2854C46.5319 34.4641 46.4716 34.6509 46.4112 34.8451C55.0035 28.9951 64.6447 30.8452 68.3242 37.218C70.5436 41.0622 70.1921 46.2047 68.2523 50.8574C66.2817 55.5836 62.5302 60.2061 57.2737 63.241C52.0105 66.2797 46.1677 67.17 41.1379 66.4787C36.3428 65.8195 31.9177 63.6518 29.6663 60.0882L29.4558 59.739C27.3327 56.0615 27.4328 51.7245 28.7532 47.7228C29.7454 44.716 32.2461 40.9928 35.3003 38.1075C36.924 36.5736 39.1185 38.1764 38.7727 40.3831C38.6722 41.0241 38.3607 41.5105 37.9021 41.9694C34.8265 45.0477 29.0636 53.2285 32.6302 58.248C37.0726 64.5 49.2505 63.0159 55.0737 59.4307C65.6001 52.95 69.0536 43.8531 65.7527 38.2461C63.4001 34.25 57.2737 33.7 52.0027 36.45C52.2196 36.4096 52.769 36.3783 53.3639 36.3556C54.4521 36.3141 55.3536 37.1591 55.4188 38.2461C55.3568 39.625 54.2108 40.7502 52.8862 41.1387C51.7609 41.4687 50.4858 41.9927 49.3299 42.7223C47.2711 44.022 45.366 45.5948 44.266 46.625L43.9434 46.927C42.6882 48.1025 40.633 47.2505 40.5775 45.5317L40.5632 45.0899C40.515 43.6015 40.6622 41.4467 40.807 40.0529C41.1845 37.0053 41.9133 34.3221 42.5745 32.4378C42.9402 31.3956 44.1255 30.9547 45.1289 31.4163L45.4922 31.5835Z" fill="white"/>
<defs>
<filter id="filter0_f_200_341" x="0" y="0" width="96" height="96" filterUnits="userSpaceOnUse" color-interpolation-filters="sRGB">
<feFlood flood-opacity="0" result="BackgroundImageFix"/>
<feBlend mode="normal" in="SourceGraphic" in2="BackgroundImageFix" result="shape"/>
<feGaussianBlur stdDeviation="10" result="effect1_foregroundBlur_200_341"/>
</filter>
</defs>
</svg>
